<svg width="95" height="95" viewBox="0 0 95 95" version="1.1" xmlns="http://www.w3.org/2000/svg" xmlns:xlink="http://www.w3.org/1999/xlink">
<title>swars</title>
<desc>Created using Figma</desc>
<g id="Canvas" transform="translate(-5044 5305)">
<g id="swars">
<path d="M 5044 -5305L 5139 -5305L 5139 -5210L 5044 -5210L 5044 -5305Z" fill="#FFFFFF"/>
<g id="Group">
<g id="Group">
<g id="Vector">
<use xlink:href="#path0_fill" transform="translate(5059.83 -5287.19)" fill="#2F80ED"/>
</g>
</g>
</g>
<g id="Group">
<g id="Group">
<g id="Vector">
<use xlink:href="#path1_fill" transform="translate(5077.65 -5269.33)" fill="#2F80ED"/>
</g>
</g>
</g>
<g id="Group">
<g id="Group">
<g id="Vector">
<use xlink:href="#path2_fill" transform="translate(5089.52 -5287.19)" fill="#2F80ED"/>
</g>
</g>
</g>
<g id="Group">
<g id="Group">
<g id="Vector">
<use xlink:href="#path3_fill" transform="translate(5083.58 -5305)" fill="#2F80ED"/>
</g>
</g>
</g>
<g id="Group">
<g id="Group">
<g id="Vector">
<use xlink:href="#path4_fill" transform="translate(5044 -5247.61)" fill="#2F80ED"/>
</g>
</g>
</g>
<g id="Group">
<g id="Group">
<g id="Vector">
<use xlink:href="#path5_fill" transform="translate(5059.83 -5305)" fill="#2F80ED"/>
</g>
</g>
</g>
<g id="Group">
<g id="Group">
<g id="Vector">
<use xlink:href="#path6_fill" transform="translate(5075.67 -5269.37)" fill="#2F80ED"/>
</g>
</g>
</g>
<g id="Group">
<g id="Group">
<g id="Vector">
<use xlink:href="#path7_fill" transform="translate(5069.75 -5229.79)" fill="#2F80ED"/>
</g>
</g>
</g>
<g id="Group">
<g id="Group">
<g id="Vector">
<use xlink:href="#path8_fill" transform="translate(5077.67 -5221.88)" fill="#2F80ED"/>
</g>
</g>
</g>
<g id="Group">
<g id="Group">
<g id="Vector">
<use xlink:href="#path9_fill" transform="translate(5093.5 -5221.88)" fill="#2F80ED"/>
</g>
</g>
</g>
<g id="Group">
<g id="Group">
<g id="Vector">
<use xlink:href="#path10_fill" transform="translate(5077.65 -5279.27)" fill="#56CCF2"/>
</g>
</g>
</g>
<g id="Group">
<g id="Group">
<g id="Vector">
<use xlink:href="#path11_fill" transform="translate(5093.48 -5279.27)" fill="#56CCF2"/>
</g>
</g>
</g>
</g>
</g>
<defs>
<path id="path0_fill" d="M 31.6658 1.97923C 30.5891 1.97923 29.8015 1.63875 28.8079 1.20735C 27.565 0.669082 26.0213 2.94447e-07 23.7494 2.94447e-07C 13.2999 2.94447e-07 2.25664 25.7569 0.14688 30.9186C -0.26483 31.9319 0.218127 33.0878 1.23135 33.4994C 1.47682 33.5983 1.73008 33.6458 1.97944 33.6458C 2.75926 33.6458 3.49937 33.1826 3.81201 32.4147C 8.63693 20.599 18.01 3.95827 23.7492 3.95827C 25.1979 3.95827 26.1399 4.36592 27.2323 4.84092C 28.4198 5.35544 29.7655 5.93731 31.6654 5.93731C 32.7579 5.93731 33.6446 5.05059 33.6446 3.95809C 33.6446 2.86559 32.7582 1.97923 31.6658 1.97923Z"/>
<path id="path1_fill" d="M 27.3118 16.5814L 15.4373 0.748126C 14.6892 -0.249374 13.0149 -0.249374 12.2707 0.748126L 0.396271 16.5814C -0.054959 17.1831 -0.126207 17.9826 0.210174 18.6556C 0.546556 19.3245 1.23138 19.7481 1.97947 19.7481L 25.7284 19.7481C 26.4765 19.7481 27.1613 19.3245 27.4977 18.6517C 27.8343 17.9826 27.763 17.179 27.3118 16.5814ZM 5.93756 15.7897L 13.8539 5.23279L 21.7703 15.7897L 5.93756 15.7897Z"/>
<path id="path2_fill" d="M 33.498 30.9186C 31.3883 25.7569 20.345 2.94447e-07 9.89551 2.94447e-07C 7.62359 2.94447e-07 6.07991 0.668896 4.83699 1.20735C 3.84343 1.63875 3.05582 1.97923 1.97914 1.97923C 0.886686 1.97923 -6.79462e-07 2.86596 -6.79462e-07 3.95846C -6.79462e-07 5.05096 0.886686 5.93768 1.97914 5.93768C 3.87905 5.93768 5.22476 5.35581 6.41221 4.84129C 7.50466 4.36629 8.44664 3.95864 9.89532 3.95864C 15.9513 3.95864 25.336 21.4149 29.8325 32.415C 30.1452 33.183 30.8855 33.6461 31.6651 33.6461C 31.9145 33.6461 32.1677 33.5986 32.4132 33.4997C 33.427 33.0839 33.9098 31.928 33.498 30.9186Z"/>
<path id="path3_fill" d="M 13.8536 1.9354e-11L 1.97914 1.9354e-11C 0.886688 1.9354e-11 6.34165e-07 0.886729 6.34165e-07 1.97923L 6.34165e-07 7.91673C 6.34165e-07 12.2828 3.55046 15.8335 7.91637 15.8335C 12.2823 15.8335 15.8327 12.2828 15.8327 7.91673L 15.8327 1.97923C 15.8327 0.886543 14.946 1.9354e-11 13.8536 1.9354e-11ZM 11.8745 7.91654C 11.8745 10.0976 10.0972 11.8748 7.91637 11.8748C 5.73536 11.8748 3.95828 10.0975 3.95828 7.91654L 3.95828 3.95827L 11.8746 3.95827L 11.8746 7.91654L 11.8745 7.91654Z"/>
<path id="path4_fill" d="M 94.8982 34.9972L 86.9819 11.2472C 86.7999 10.7048 86.392 10.2695 85.8657 10.0478L 62.1167 0.152037C 61.1154 -0.267484 59.9476 0.211409 59.5281 1.21689C 59.1086 2.22626 59.5836 3.38612 60.5929 3.80564L 83.5106 13.357L 90.2711 33.6475L 4.72747 33.6475L 11.492 13.357L 34.4097 3.80564C 35.4191 3.38612 35.894 2.22626 35.4745 1.21689C 35.051 0.211409 33.8913 -0.267484 32.8859 0.152037L 9.13698 10.0478C 8.60653 10.2655 8.1989 10.7048 8.02078 11.2472L 0.104411 34.9972C -0.101351 35.6028 0.00143749 36.2678 0.373628 36.7823C 0.745632 37.3009 1.34344 37.6056 1.98058 37.6056L 93.0182 37.6056C 93.6555 37.6056 94.2531 37.3008 94.6292 36.7823C 94.9971 36.2639 95.1001 35.5989 94.8982 34.9972Z"/>
<path id="path5_fill" d="M 63.2302 48.8538L 55.4168 25.4084L 55.4168 17.8125C 55.4168 6.24235 43.1822 1.9354e-11 31.6679 1.9354e-11C 20.1536 1.9354e-11 7.91898 6.24235 7.91898 17.8125L 7.91898 25.4086L 0.101688 48.8538C -0.0844069 49.4158 -0.0131598 50.0294 0.299658 50.5281C 0.485753 50.8211 4.95834 57.7995 17.2762 61.2789C 18.3132 61.5719 19.4175 60.9663 19.7185 59.9133C 20.0153 58.8603 19.4059 57.7678 18.3529 57.4709C 9.79941 55.0523 5.5721 50.7814 4.18669 49.1189L 11.7745 26.3545C 11.8418 26.1526 11.8774 25.9428 11.8774 25.729L 11.8774 17.8125C 11.8774 8.25702 23.4511 3.95827 31.6683 3.95827C 39.8854 3.95827 51.4591 8.25702 51.4591 17.8125L 51.4591 25.7292C 51.4591 25.943 51.4947 26.1528 51.566 26.3547L 59.1538 49.1191C 57.7605 50.7896 53.5332 55.0566 44.9875 57.4711C 43.9346 57.768 43.3251 58.8605 43.622 59.9135C 43.8674 60.7842 44.6589 61.3542 45.5219 61.3542C 45.7 61.3542 45.8781 61.3305 46.0562 61.2791C 58.3739 57.7997 62.8467 50.8252 63.0328 50.5283C 63.3451 50.0253 63.4163 49.4158 63.2302 48.8538Z"/>
<path id="path6_fill" d="M 30.2282 4.03244L 16.3746 0.0741737C 16.0223 -0.0247227 15.6464 -0.0247227 15.2902 0.0741737L 1.43655 4.03244C 0.466743 4.30947 -0.138855 5.27134 0.0273877 6.26105L 2.00653 18.136C 2.18464 19.2128 3.20195 19.9529 4.28253 19.7629C 5.3592 19.5848 6.08744 18.5635 5.90933 17.4868L 4.21926 7.35355L 15.8325 4.03653L 27.4418 7.35355L 25.7517 17.4868C 25.5697 18.5635 26.3019 19.5848 27.3785 19.7629C 27.4893 19.7828 27.6003 19.7906 27.7071 19.7906C 28.661 19.7906 29.5002 19.1057 29.6584 18.136L 31.6376 6.26105C 31.8034 5.27153 31.1978 4.30965 30.2282 4.03244Z"/>
<path id="path7_fill" d="M 41.5606 2.26498e-07L 1.97914 2.26498e-07C 0.886689 2.26498e-07 -8.15354e-07 0.886727 -8.15354e-07 1.97923L -8.15354e-07 17.8125C -8.15354e-07 18.905 0.886689 19.7917 1.97914 19.7917C 3.07159 19.7917 3.95828 18.905 3.95828 17.8125L 3.95828 3.95827L 39.5817 3.95827L 39.5817 17.8125C 39.5817 18.905 40.4683 19.7917 41.5608 19.7917C 42.6533 19.7917 43.5399 18.905 43.5399 17.8125L 43.5399 1.97923C 43.5398 0.886727 42.6531 2.26498e-07 41.5606 2.26498e-07Z"/>
<path id="path8_fill" d="M 9.89551 -1.22309e-06L 1.97914 -1.22309e-06C 0.886689 -1.22309e-06 -7.47408e-07 0.886726 -7.47408e-07 1.97923C -7.47408e-07 3.07173 0.886689 3.95846 1.97914 3.95846L 9.89551 3.95846C 10.988 3.95846 11.8746 3.07173 11.8746 1.97923C 11.8746 0.886726 10.988 -1.22309e-06 9.89551 -1.22309e-06Z"/>
<path id="path9_fill" d="M 9.89551 -1.22309e-06L 1.97914 -1.22309e-06C 0.88669 -1.22309e-06 -2.12898e-06 0.886726 -2.12898e-06 1.97923C -2.12898e-06 3.07173 0.88669 3.95846 1.97914 3.95846L 9.89551 3.95846C 10.988 3.95846 11.8746 3.07173 11.8746 1.97923C 11.8746 0.886726 10.988 -1.22309e-06 9.89551 -1.22309e-06Z"/>
<path id="path10_fill" d="M 11.4782 2.77077C 11.2645 2.48577 9.30519 1.58548e-07 5.93674 1.58548e-07C 3.06312 1.58548e-07 1.07211 1.78515 0.347765 2.83813C -0.067841 3.44375 -0.115339 4.2275 0.229021 4.88063C 0.569484 5.52985 1.24225 5.9375 1.97846 5.9375L 9.89483 5.9375C 10.6429 5.9375 11.3277 5.5139 11.6641 4.8411C 12.0007 4.17202 11.9294 3.36842 11.4782 2.77077Z"/>
<path id="path11_fill" d="M 11.5267 2.83812C 10.8024 1.78515 8.81137 -1.15514e-06 5.93775 -1.15514e-06C 2.5693 -1.15514e-06 0.610011 2.48577 0.396271 2.77077C -0.0549589 3.3725 -0.12621 4.17202 0.210172 4.845C 0.546553 5.5139 1.23138 5.9375 1.97947 5.9375L 9.89584 5.9375C 10.6321 5.9375 11.305 5.52985 11.6453 4.88062C 11.99 4.23158 11.9423 3.44375 11.5267 2.83812Z"/>
</defs>
</svg>
