<svg xmlns="http://www.w3.org/2000/svg" viewBox="119 108 64 85.76"><defs><style>.a{fill:rgba(255,255,255,0.87);}</style></defs><g transform="translate(2367 155)"><path aria-hidden="true" class="a" d="M-2305.961-69.423l-14.091-6.305-14.091,6.305a2.094,2.094,0,0,1-1.712,0l-14.091-6.305-14.091,6.305a2.1,2.1,0,0,1-2.362-.454,2.123,2.123,0,0,1-.4-2.384l11.248-23.916a2.105,2.105,0,0,1,1.047-1.029l8.081,1.525-12.149-20.376c-.023-.04-.045-.079-.066-.12a26.873,26.873,0,0,1-2.9-12.308,26.58,26.58,0,0,1,7.72-18.6A26.3,26.3,0,0,1-2335.376-155a26.28,26.28,0,0,1,19.013,7.68,26.557,26.557,0,0,1,7.9,18.994,26.509,26.509,0,0,1-2.905,12.146c-.022.041-.043.08-.067.12l-12.231,20.627,8.131-1.789a2.108,2.108,0,0,1,1.08,1.042l11.249,23.916a2.125,2.125,0,0,1-.4,2.384,2.1,2.1,0,0,1-1.506.637A2.094,2.094,0,0,1-2305.961-69.423Zm-43.13-10.555L-2335-73.672l14.091-6.306a2.1,2.1,0,0,1,1.713,0l9.761,4.369-8.488-18.047-7.911,1.888-3.742,6.281a6.26,6.26,0,0,1-5.424,3.1,6.257,6.257,0,0,1-5.424-3.1l-3.741-6.281-7.828-1.638-8.572,17.8,9.761-4.369a2.094,2.094,0,0,1,.856-.183A2.1,2.1,0,0,1-2349.091-79.979Zm13.774-70.787a22.5,22.5,0,0,0-22.012,22.307,22.3,22.3,0,0,0,2.411,10.293l18.111,30.51A2.07,2.07,0,0,0-2335-86.624a2.071,2.071,0,0,0,1.808-1.031l18.111-30.51a22.292,22.292,0,0,0,2.411-10.157,22.338,22.338,0,0,0-6.651-15.981,22.12,22.12,0,0,0-15.685-6.463Zm-15.113,21.791a15.567,15.567,0,0,1,15.509-15.588,15.566,15.566,0,0,1,15.509,15.588,15.566,15.566,0,0,1-15.509,15.589A15.567,15.567,0,0,1-2350.43-128.975Zm14.395,12.822q.556.049,1.114.049a12.571,12.571,0,0,0,5.529-1.265v-5.46Zm-3.143-.683,3.844-3.865h-9.384A12.876,12.876,0,0,0-2339.178-116.835Zm12.49-2.291a12.938,12.938,0,0,0,3.844-5.567l-3.844-3.865Zm-21.038-9.848a12.751,12.751,0,0,0,1.259,5.558h5.432l-1.722-1.732-.013-.013-4.908-4.933C-2347.71-129.722-2347.727-129.348-2347.727-128.975Zm7.277-2.3v4.6l3.238,3.254h4.581l3.238-3.254v-4.6l-3.238-3.255h-4.581Zm13.351-1.537.014.014,4.919,4.945q.049-.559.049-1.12a12.733,12.733,0,0,0-1.259-5.557h-5.432Zm-19.9-.441,3.844,3.864v-9.432A12.947,12.947,0,0,0-2347-133.254Zm6.548-7.325v5.46l6.644-6.677c-.371-.032-.743-.049-1.115-.049A12.558,12.558,0,0,0-2340.45-140.579Zm5.943,3.331h9.383a12.875,12.875,0,0,0-5.539-3.865Z" transform="translate(119 108)"/></g></svg>
