<svg width="64" height="86" viewBox="0 0 64 86" version="1.1" xmlns="http://www.w3.org/2000/svg" xmlns:xlink="http://www.w3.org/1999/xlink">
    <title>Icono</title>
    <desc>Created using Figma</desc>
    <g id="Canvas" transform="translate(-6478 86)">
    <g id="Icono">
    <g id="Group">
    <g id="Group">
    <g id="Vector">
    <use xlink:href="#path0_fill" transform="translate(6478 -86)" fill="#0072EE"/>
    </g>
    </g>
    </g>
    <g id="Vector">
    <use xlink:href="#path1_fill" transform="translate(6494.57 -75.5625)" fill="#0072EE"/>
    </g>
    </g>
    </g>
    <defs>
    <path aria-hidden="true" id="path0_fill" d="M 63.7978 82.7393L 52.5495 58.8235C 52.325 58.3463 51.9361 57.9806 51.4696 57.7812L 43.3387 59.5707L 55.5699 38.9429C 55.5931 38.9037 55.6149 38.864 55.6357 38.8235C 57.5635 35.0415 58.541 30.9547 58.541 26.6772C 58.541 19.4816 55.7337 12.7357 50.6362 7.68242C 45.5396 2.63029 38.7875 -0.0984544 31.6243 0.00271554C 24.6672 0.099698 18.1167 2.9085 13.1792 7.91206C 8.24222 12.9153 5.50058 19.522 5.45925 26.5156C 5.43392 30.7894 6.43862 35.0452 8.36403 38.8233C 8.3847 38.8637 8.40652 38.9036 8.42969 38.9428L 20.5784 59.3193L 12.4975 57.7946C 12.037 58.0004 11.6654 58.3654 11.4501 58.8233L 0.20212 82.7393C -0.174329 83.5391 -0.0155175 84.4902 0.600067 85.1228C 1.21549 85.7555 2.15736 85.9367 2.96175 85.5769L 17.0529 79.2712L 31.144 85.5769C 31.6891 85.8206 32.3115 85.8206 32.8566 85.5769L 46.9477 79.2712L 61.0388 85.5769C 61.3141 85.7 61.6056 85.76 61.8946 85.76C 62.4496 85.76 62.9957 85.5392 63.4005 85.123C 64.0156 84.4902 64.1743 83.5395 63.7978 82.7393ZM 12.0815 36.8343C 10.4601 33.6297 9.6487 30.1669 9.67019 26.5409C 9.74152 14.4091 19.6165 4.40244 31.6829 4.23443C 37.7098 4.15303 43.3919 6.44527 47.6796 10.6959C 51.9687 14.9476 54.3306 20.6231 54.3306 26.6774C 54.3306 30.255 53.5192 33.6717 51.9187 36.8343L 33.8081 67.3441C 33.2552 68.2754 32.3597 68.3759 32.0002 68.3759C 31.6406 68.3759 30.745 68.2754 30.1923 67.3441L 12.0815 36.8343ZM 47.8036 75.0218C 47.2585 74.778 46.6361 74.778 46.091 75.0218L 31.9999 81.3275L 17.9088 75.0218C 17.3637 74.778 16.7412 74.778 16.1962 75.0218L 6.43446 79.3902L 15.0063 61.5934L 22.8346 63.2313L 26.5758 69.5123C 27.7263 71.4507 29.754 72.6079 31.9995 72.6079C 34.2451 72.6079 36.2728 71.4506 37.4233 69.5125L 41.1655 63.2313L 49.0766 61.3432L 57.5646 79.3903L 47.8036 75.0218Z"/>
    <path aria-hidden="true" id="path1_fill" d="M 15.5088 0C 6.95716 0 0 6.99288 0 15.5884C 0 24.1839 6.95716 31.1767 15.5088 31.1767C 24.0602 31.1767 31.0174 24.1839 31.0174 15.5884C 31.0174 6.99288 24.0602 0 15.5088 0ZM 23.7409 25.4361L 23.7409 16.0038L 27.5853 19.8682C 26.8241 22.029 25.489 23.9567 23.7409 25.4361ZM 7.27654 5.74039L 7.27654 15.1725L 3.43224 11.3086C 4.19321 9.1478 5.5284 7.21992 7.27654 5.74039ZM 17.7988 10.0314L 21.0373 13.2863L 21.0373 17.8899L 17.7988 21.145L 13.2186 21.145L 9.98011 17.8899L 9.98011 13.2863L 13.2186 10.0314L 17.7988 10.0314ZM 15.9223 7.31389L 19.767 3.44962C 21.9164 4.21449 23.8345 5.5567 25.3064 7.31389L 15.9223 7.31389ZM 9.9802 9.44338L 9.9802 3.98336C 11.7134 3.14316 13.571 2.71754 15.5088 2.71754C 15.8806 2.71754 16.2528 2.73381 16.6234 2.7662L 9.9802 9.44338ZM 9.39531 21.1451L 3.96301 21.1451C 3.12702 19.4025 2.70358 17.5355 2.70358 15.5884C 2.70358 15.2144 2.71977 14.8402 2.75207 14.4676L 7.65978 19.4005C 7.6641 19.405 7.66841 19.4095 7.67289 19.414L 9.39531 21.1451ZM 15.0956 23.8625L 11.2511 27.7269C 9.10133 26.9621 7.18312 25.6199 5.71099 23.8625L 15.0956 23.8625ZM 21.0373 21.7329L 21.0373 27.1933C 19.3038 28.0335 17.446 28.4592 15.5088 28.4592C 15.1371 28.4592 14.765 28.4428 14.3943 28.4105L 21.0373 21.7329ZM 28.3139 15.5884C 28.3139 15.9621 28.2976 16.3362 28.2654 16.7086L 23.3461 11.764C 23.3412 11.7591 23.3363 11.7543 23.3313 11.7495L 21.622 10.0314L 27.0544 10.0314C 27.8904 11.7739 28.3139 13.6412 28.3139 15.5884Z"/>
    </defs>
</svg>
