<svg width="94" height="94" viewBox="0 0 94 94" version="1.1" xmlns="http://www.w3.org/2000/svg" xmlns:xlink="http://www.w3.org/1999/xlink">
<title>005-user</title>
<desc>Created using Figma</desc>
<g id="Canvas" transform="translate(-4392 5301)">
<g id="005-user">
<path d="M 4393 -5300L 4485 -5300L 4485 -5208L 4393 -5208L 4393 -5300Z" fill="#FFFFFF"/>
<g id="Vector">
<use xlink:href="#path0_fill" transform="translate(4393 -5300)" fill="#B2B2B2"/>
<mask id="mask0_outline_out">
<rect id="mask0_outline_inv" fill="white" x="-1" y="-1" width="94" height="94" transform="translate(4393 -5300)"/>
<use xlink:href="#path0_fill" fill="black" transform="translate(4393 -5300)"/>
</mask>
<g mask="url(#mask0_outline_out)">
<use xlink:href="#path1_stroke_2x" transform="translate(4393 -5300)" fill="#B2B2B2"/>
</g>
</g>
</g>
</g>
<defs>
<path id="path0_fill" d="M 92 46C 92 20.6356 71.3644 0 46 0C 20.6356 0 0 20.6356 0 46C 0 55.4177 2.84893 64.1807 7.72493 71.4809L 7.72187 71.5131L 8.03927 71.9777C 8.31527 72.381 8.61273 72.7628 8.901 73.1553C 9.01753 73.3148 9.13253 73.4758 9.25213 73.6353C 9.61707 74.1198 9.99273 74.5951 10.3745 75.0628C 10.4849 75.1977 10.5969 75.3311 10.7088 75.4645C 12.4829 77.5882 14.4302 79.5325 16.5247 81.282C 16.652 81.3878 16.7777 81.4951 16.9065 81.6009C 17.3635 81.9735 17.825 82.3385 18.2957 82.6927C 18.4859 82.8368 18.6791 82.9763 18.8707 83.1174C 19.3185 83.4455 19.7662 83.7706 20.2262 84.0819C 20.4715 84.249 20.7261 84.4054 20.9745 84.5679C 21.6123 84.9819 22.2563 85.3821 22.9126 85.7624C 23.3695 86.0292 23.828 86.2945 24.2957 86.5459C 24.5778 86.6977 24.8661 86.8388 25.1513 86.9845C 25.6496 87.239 26.1495 87.4859 26.657 87.722C 26.9131 87.8401 27.1691 87.9566 27.4267 88.0701C 28.014 88.3307 28.6089 88.5776 29.2085 88.8137C 29.394 88.8873 29.578 88.9625 29.7651 89.0345C 31.4103 89.6571 33.1001 90.1907 34.8281 90.6231C 34.8987 90.6415 34.9707 90.6553 35.0413 90.6721C 35.8049 90.8592 36.5761 91.0263 37.3551 91.1751C 37.5621 91.2149 37.7691 91.2502 37.9761 91.287C 38.6262 91.402 39.2794 91.5032 39.9387 91.5906C 40.1902 91.6243 40.4401 91.6565 40.6916 91.6872C 41.3341 91.7608 41.9811 91.8191 42.6313 91.8666C 42.8735 91.885 43.1143 91.908 43.3565 91.9218C 44.2321 91.9678 45.1122 92 46 92C 46.8878 92 47.7679 91.9678 48.6435 91.9187C 48.8857 91.9049 49.1265 91.8804 49.3687 91.8635C 50.0189 91.816 50.6659 91.7593 51.3084 91.6841C 51.5599 91.655 51.8113 91.6213 52.0613 91.5875C 52.7206 91.5001 53.3738 91.3989 54.0239 91.2839C 54.2309 91.2471 54.4379 91.2119 54.6449 91.172C 55.4239 91.0233 56.1951 90.8561 56.9587 90.6691C 57.0293 90.6522 57.1013 90.6369 57.1719 90.62C 58.8999 90.1876 60.5897 89.654 62.2349 89.0315C 62.422 88.9609 62.6075 88.8843 62.7946 88.8107C 63.3941 88.5745 63.9875 88.3277 64.5748 88.0685C 64.8324 87.9551 65.09 87.8385 65.3445 87.7205C 65.8521 87.4843 66.3535 87.2375 66.8503 86.9829C 67.1355 86.8373 67.4237 86.6947 67.7059 86.5444C 68.1735 86.2929 68.6305 86.0277 69.0889 85.7609C 69.7452 85.3791 70.3907 84.9804 71.0271 84.5664C 71.277 84.4039 71.53 84.2475 71.7753 84.0803C 72.2338 83.7691 72.6815 83.444 73.1308 83.1159C 73.3225 82.9748 73.5157 82.8353 73.7058 82.6911C 74.175 82.3369 74.6381 81.972 75.095 81.5994C 75.2238 81.4936 75.3495 81.3863 75.4768 81.2805C 77.5729 79.5294 79.5187 77.5867 81.2943 75.4615C 81.4062 75.3281 81.5166 75.1962 81.6255 75.0613C 82.0073 74.5936 82.3829 74.1183 82.7479 73.6337C 82.8675 73.4758 82.9809 73.3148 83.099 73.1538C 83.3857 72.7613 83.6847 72.3795 83.9607 71.9762L 84.2781 71.5116L 84.2751 71.4794C 89.1511 64.1807 92 55.4177 92 46ZM 88.9333 46C 88.9333 53.6237 86.9262 60.7844 83.4271 66.9975C 80.8021 58.2973 72.7689 52.1333 63.3435 52.1333L 61.9697 52.1333L 54.2279 52.1333C 53.9181 52.1333 53.6667 51.8819 53.6667 51.5737L 53.6667 50.5847C 53.6667 50.3041 53.8951 50.1201 54.0899 50.0449C 63.963 46.3327 70.1209 30.9335 68.8298 20.1633C 68.1567 14.5544 65.3783 9.54193 61.3425 5.911C 77.4594 12.1011 88.9333 27.7319 88.9333 46ZM 80.5583 71.438C 80.4341 71.6051 80.3099 71.7707 80.1841 71.9363C 79.8422 72.3856 79.4972 72.8318 79.1384 73.2673C 79.1016 73.3117 79.0633 73.3547 79.0265 73.3991C 77.7875 74.8895 76.4489 76.2941 75.0229 77.6051C 74.9386 77.6833 74.8543 77.763 74.7684 77.8397C 74.3437 78.2245 73.9082 78.5987 73.4681 78.9667C 73.3301 79.0817 73.1906 79.1951 73.0511 79.3086C 72.6233 79.6567 72.1924 79.9986 71.7523 80.3298C 71.6036 80.4417 71.4503 80.5475 71.3 80.6579C 71.047 80.8435 70.7909 81.0229 70.5349 81.2023L 70.5349 73.6L 67.4682 73.6L 67.4682 83.1573C 67.4084 83.1925 67.3486 83.2263 67.2873 83.2615C 66.8963 83.4854 66.5068 83.7077 66.1097 83.9178C 65.8383 84.0619 65.5623 84.2015 65.2863 84.341C 64.8232 84.5741 64.3571 84.7995 63.8863 85.0157C 63.6563 85.1215 63.4279 85.2273 63.1963 85.3285C 62.606 85.5861 62.0095 85.8314 61.4085 86.0629C 61.2843 86.1105 61.1631 86.1626 61.0389 86.2086C 59.5056 86.7821 57.9385 87.2697 56.3423 87.6653C 56.2273 87.6944 56.1108 87.7174 55.9958 87.745C 55.3349 87.9029 54.6679 88.0471 53.9979 88.1728C 53.7985 88.2111 53.5992 88.2449 53.3983 88.2801C 52.8034 88.3844 52.2054 88.4749 51.6043 88.5531C 51.3728 88.5837 51.1413 88.6159 50.9082 88.642C 50.3133 88.711 49.7153 88.7616 49.1142 88.8061C 48.8919 88.8214 48.6711 88.8444 48.4472 88.8567C 47.633 88.9057 46.8188 88.9333 46 88.9333C 45.1812 88.9333 44.367 88.9057 43.5543 88.8597C 43.3305 88.8475 43.1097 88.8245 42.8873 88.8091C 42.2878 88.7647 41.6883 88.7141 41.0933 88.6451C 40.8603 88.619 40.6287 88.5868 40.3972 88.5561C 39.7961 88.4764 39.1981 88.3859 38.6032 88.2832C 38.4039 88.2479 38.203 88.2142 38.0037 88.1759C 37.3336 88.0486 36.6666 87.906 36.0057 87.7465C 35.8907 87.7189 35.7757 87.6944 35.6607 87.6668C 34.0645 87.2697 32.4959 86.7836 30.9626 86.2101C 30.8384 86.1641 30.7157 86.112 30.5931 86.0645C 29.992 85.8329 29.3971 85.5876 28.8067 85.33C 28.5752 85.2288 28.3452 85.123 28.1152 85.0172C 27.6445 84.801 27.1783 84.5756 26.7153 84.3425C 26.4393 84.203 26.1633 84.065 25.8919 83.9193C 25.4947 83.7093 25.1037 83.4854 24.7143 83.2631C 24.6545 83.2278 24.5931 83.1941 24.5333 83.1588L 24.5333 73.6L 21.4667 73.6L 21.4667 81.2023C 21.2091 81.0229 20.953 80.8419 20.7015 80.6579C 20.5513 80.5475 20.3979 80.4417 20.2492 80.3298C 19.8091 79.9986 19.3783 79.6567 18.952 79.3101C 18.8109 79.1967 18.6714 79.0817 18.5319 78.9667C 18.0918 78.6002 17.6579 78.2261 17.2331 77.8412C 17.1473 77.763 17.0614 77.6817 16.9755 77.6035C 15.5495 76.2925 14.2109 74.8895 12.9735 73.3991C 12.9367 73.3547 12.8984 73.3117 12.8616 73.2673C 12.5028 72.8318 12.1578 72.3856 11.8159 71.9363C 11.6901 71.7707 11.5644 71.6051 11.4417 71.438C 11.2577 71.1881 11.0799 70.9335 10.902 70.679C 12.1026 61.8133 19.6328 55.2 28.6565 55.2L 33.097 55.2L 46 68.1015L 58.9015 55.2L 63.342 55.2C 72.3657 55.2 79.8974 61.8133 81.098 70.679C 80.9201 70.9335 80.7438 71.1881 80.5583 71.438ZM 39.0862 47.2129C 31.7538 44.5004 26.0667 31.97 26.0667 23C 26.0667 22.8037 26.0897 22.6121 26.0943 22.4173L 27.2167 21.0327C 29.7482 18.0213 34.0691 17.1595 37.9684 18.8861C 39.537 19.5822 41.2068 19.9333 42.9333 19.9333C 47.4889 19.9333 51.5813 17.457 53.7096 13.5179C 58.5887 15.1202 62.9433 18.1409 65.8889 21.9481C 66.3381 31.3015 60.8381 44.2321 53.0119 47.1745C 51.5461 47.7265 50.6 49.0651 50.6 50.5847L 50.6 51.5737C 50.6 53.5716 52.2284 55.2 54.2263 55.2L 54.5652 55.2L 46 63.7652L 37.4348 55.2L 37.7737 55.2C 39.7716 55.2 41.4 53.5716 41.4 51.5737L 41.4 50.6C 41.4 49.0881 40.4723 47.7265 39.0862 47.2129ZM 46.0613 3.06973C 46.0797 3.06973 46.0951 3.06973 46.1119 3.06973C 46.8617 3.07433 47.5993 3.11573 48.3046 3.197C 55.9084 4.04493 62.2993 9.338 64.791 16.3668C 61.548 13.5424 57.5721 11.3681 53.2956 10.1921L 51.9769 9.8302L 51.4663 11.0967C 50.0541 14.6004 46.7053 16.8667 42.9333 16.8667C 41.6377 16.8667 40.3849 16.6029 39.2119 16.0831C 34.9707 14.2063 30.3401 14.7139 26.9192 17.2025C 27.8591 14.0959 29.5565 11.2501 31.9194 8.8918C 35.6822 5.13667 40.6793 3.06973 46.0613 3.06973ZM 30.6391 5.91867C 30.3431 6.18547 30.038 6.43693 29.7528 6.7206C 25.3981 11.0676 23 16.8467 23 23C 23 33.1645 29.4247 46.9093 38.0221 50.0879C 38.2045 50.1569 38.3333 50.3669 38.3333 50.6L 38.3333 51.5737C 38.3333 51.8819 38.0819 52.1333 37.7737 52.1333L 30.0319 52.1333L 28.658 52.1333C 19.2311 52.1333 11.1979 58.2973 8.57287 66.9975C 5.0738 60.7844 3.06667 53.6237 3.06667 46C 3.06667 27.738 14.5314 12.1133 30.6391 5.91867Z"/>
<path id="path1_stroke_2x" d="M 7.72493 71.4809L 7.97381 71.5046L 7.98224 71.4161L 7.93283 71.3421L 7.72493 71.4809ZM 7.72187 71.5131L 7.47299 71.4894L 7.46442 71.5795L 7.51544 71.6542L 7.72187 71.5131ZM 8.03927 71.9777L 7.83284 72.1188L 7.83296 72.1189L 8.03927 71.9777ZM 8.901 73.1553L 9.10285 73.0078L 9.1025 73.0074L 8.901 73.1553ZM 9.25213 73.6353L 9.05213 73.7853L 9.05244 73.7857L 9.25213 73.6353ZM 10.3745 75.0628L 10.1809 75.2209L 10.181 75.2211L 10.3745 75.0628ZM 10.7088 75.4645L 10.9007 75.3043L 10.9003 75.3038L 10.7088 75.4645ZM 16.5247 81.282L 16.3645 81.4739L 16.3649 81.4742L 16.5247 81.282ZM 16.9065 81.6009L 16.7478 81.7941L 16.7485 81.7947L 16.9065 81.6009ZM 18.2957 82.6927L 18.4468 82.4934L 18.446 82.4929L 18.2957 82.6927ZM 18.8707 83.1174L 18.7225 83.3187L 18.723 83.319L 18.8707 83.1174ZM 20.2262 84.0819L 20.367 83.8753L 20.3663 83.8748L 20.2262 84.0819ZM 20.9745 84.5679L 20.8376 84.7771L 20.8384 84.7776L 20.9745 84.5679ZM 22.9126 85.7624L 23.0387 85.5465L 23.0379 85.5461L 22.9126 85.7624ZM 24.2957 86.5459L 24.4141 86.3258L 24.4141 86.3257L 24.2957 86.5459ZM 25.1513 86.9845L 25.265 86.7618L 25.265 86.7618L 25.1513 86.9845ZM 26.657 87.722L 26.5515 87.9487L 26.5523 87.949L 26.657 87.722ZM 27.4267 88.0701L 27.5282 87.8416L 27.5275 87.8413L 27.4267 88.0701ZM 29.2085 88.8137L 29.3007 88.5814L 29.3001 88.5811L 29.2085 88.8137ZM 29.7651 89.0345L 29.6752 89.2678L 29.6766 89.2684L 29.7651 89.0345ZM 34.8281 90.6231L 34.8912 90.3811L 34.8888 90.3805L 34.8281 90.6231ZM 35.0413 90.6721L 35.1008 90.4293L 35.0994 90.429L 35.0413 90.6721ZM 37.3551 91.1751L 37.4023 90.9296L 37.402 90.9295L 37.3551 91.1751ZM 37.9761 91.287L 37.9323 91.5331L 37.9325 91.5332L 37.9761 91.287ZM 39.9387 91.5906L 39.972 91.3428L 39.9716 91.3428L 39.9387 91.5906ZM 40.6916 91.6872L 40.6613 91.9354L 40.6631 91.9356L 40.6916 91.6872ZM 42.6313 91.8666L 42.6502 91.6173L 42.6495 91.6173L 42.6313 91.8666ZM 43.3565 91.9218L 43.3423 92.1714L 43.3434 92.1715L 43.3565 91.9218ZM 48.6435 91.9187L 48.6575 92.1683L 48.6577 92.1683L 48.6435 91.9187ZM 49.3687 91.8635L 49.3861 92.1129L 49.387 92.1129L 49.3687 91.8635ZM 51.3084 91.6841L 51.2796 91.4358L 51.2794 91.4358L 51.3084 91.6841ZM 52.0613 91.5875L 52.0284 91.3397L 52.0278 91.3398L 52.0613 91.5875ZM 54.0239 91.2839L 54.0675 91.5301L 54.0677 91.5301L 54.0239 91.2839ZM 54.6449 91.172L 54.598 90.9264L 54.5977 90.9265L 54.6449 91.172ZM 56.9587 90.6691L 56.9006 90.4259L 56.8992 90.4262L 56.9587 90.6691ZM 57.1719 90.62L 57.23 90.8632L 57.2325 90.8625L 57.1719 90.62ZM 62.2349 89.0315L 62.1467 88.7975L 62.1465 88.7976L 62.2349 89.0315ZM 62.7946 88.8107L 62.8861 89.0433L 62.8862 89.0433L 62.7946 88.8107ZM 64.5748 88.0685L 64.474 87.8397L 64.4739 87.8398L 64.5748 88.0685ZM 65.3445 87.7205L 65.4497 87.9473L 65.45 87.9471L 65.3445 87.7205ZM 66.8503 86.9829L 66.7365 86.7603L 66.7363 86.7604L 66.8503 86.9829ZM 67.7059 86.5444L 67.8234 86.7651L 67.8243 86.7646L 67.7059 86.5444ZM 69.0889 85.7609L 68.9632 85.5448L 68.9632 85.5448L 69.0889 85.7609ZM 71.0271 84.5664L 70.8908 84.3568L 70.8907 84.3568L 71.0271 84.5664ZM 71.7753 84.0803L 71.6349 83.8735L 71.6346 83.8737L 71.7753 84.0803ZM 73.1308 83.1159L 73.2783 83.3178L 73.279 83.3172L 73.1308 83.1159ZM 73.7058 82.6911L 73.5552 82.4916L 73.5548 82.4919L 73.7058 82.6911ZM 75.095 81.5994L 75.253 81.7931L 75.2537 81.7926L 75.095 81.5994ZM 75.4768 81.2805L 75.6366 81.4727L 75.6371 81.4723L 75.4768 81.2805ZM 81.2943 75.4615L 81.1028 75.3008L 81.1024 75.3012L 81.2943 75.4615ZM 81.6255 75.0613L 81.4318 74.9032L 81.4309 74.9043L 81.6255 75.0613ZM 82.7479 73.6337L 82.5486 73.4828L 82.5482 73.4833L 82.7479 73.6337ZM 83.099 73.1538L 83.3006 73.3016L 83.3009 73.3013L 83.099 73.1538ZM 83.9607 71.9762L 84.167 72.1174L 84.1672 72.1172L 83.9607 71.9762ZM 84.2781 71.5116L 84.4846 71.6526L 84.5356 71.5779L 84.527 71.4879L 84.2781 71.5116ZM 84.2751 71.4794L 84.0672 71.3405L 84.0178 71.4145L 84.0262 71.5031L 84.2751 71.4794ZM 83.4271 66.9975L 83.1878 67.0697L 83.3572 67.6311L 83.645 67.1201L 83.4271 66.9975ZM 54.0899 50.0449L 54.0019 49.8109L 53.9999 49.8117L 54.0899 50.0449ZM 68.8298 20.1633L 69.078 20.1336L 69.078 20.1335L 68.8298 20.1633ZM 61.3425 5.911L 61.4322 5.67762L 61.1753 6.09685L 61.3425 5.911ZM 80.5583 71.438L 80.7589 71.5871L 80.759 71.587L 80.5583 71.438ZM 80.1841 71.9363L 80.3831 72.0877L 80.3832 72.0875L 80.1841 71.9363ZM 79.1384 73.2673L 79.331 73.4267L 79.3313 73.4262L 79.1384 73.2673ZM 79.0265 73.3991L 79.2187 73.5589L 79.2191 73.5585L 79.0265 73.3991ZM 75.0229 77.6051L 74.8537 77.421L 74.853 77.4217L 75.0229 77.6051ZM 74.7684 77.8397L 74.6019 77.6532L 74.6005 77.6544L 74.7684 77.8397ZM 73.4681 78.9667L 73.6282 79.1587L 73.6285 79.1584L 73.4681 78.9667ZM 73.0511 79.3086L 72.8933 79.1146L 72.8933 79.1147L 73.0511 79.3086ZM 71.7523 80.3298L 71.9027 80.5295L 71.9027 80.5295L 71.7523 80.3298ZM 71.3 80.6579L 71.4478 80.8595L 71.448 80.8594L 71.3 80.6579ZM 70.5349 81.2023L 70.2849 81.2023L 70.2849 81.6827L 70.6783 81.407L 70.5349 81.2023ZM 70.5349 73.6L 70.7849 73.6L 70.7849 73.35L 70.5349 73.35L 70.5349 73.6ZM 67.4682 73.6L 67.4682 73.35L 67.2182 73.35L 67.2182 73.6L 67.4682 73.6ZM 67.4682 83.1573L 67.5952 83.3726L 67.7182 83.3001L 67.7182 83.1573L 67.4682 83.1573ZM 67.2873 83.2615L 67.4115 83.4785L 67.4119 83.4783L 67.2873 83.2615ZM 66.1097 83.9178L 65.9928 83.6968L 65.9924 83.697L 66.1097 83.9178ZM 65.2863 84.341L 65.3987 84.5643L 65.3991 84.5641L 65.2863 84.341ZM 63.8863 85.0157L 63.782 84.7885L 63.7819 84.7885L 63.8863 85.0157ZM 63.1963 85.3285L 63.2963 85.5576L 63.2965 85.5575L 63.1963 85.3285ZM 61.4085 86.0629L 61.4978 86.2964L 61.4983 86.2962L 61.4085 86.0629ZM 61.0389 86.2086L 60.9521 85.9742L 60.9514 85.9744L 61.0389 86.2086ZM 56.3423 87.6653L 56.2822 87.4226L 56.2809 87.4229L 56.3423 87.6653ZM 55.9958 87.745L 56.0539 87.9882L 56.0541 87.9881L 55.9958 87.745ZM 53.9979 88.1728L 53.9518 87.9271L 53.9507 87.9273L 53.9979 88.1728ZM 53.3983 88.2801L 53.4415 88.5264L 53.4416 88.5264L 53.3983 88.2801ZM 51.6043 88.5531L 51.5721 88.3052L 51.5715 88.3052L 51.6043 88.5531ZM 50.9082 88.642L 50.8804 88.3935L 50.8794 88.3937L 50.9082 88.642ZM 49.1142 88.8061L 49.1314 89.0555L 49.1326 89.0554L 49.1142 88.8061ZM 48.4472 88.8567L 48.4335 88.607L 48.4322 88.6071L 48.4472 88.8567ZM 43.5543 88.8597L 43.5685 88.6101L 43.568 88.6101L 43.5543 88.8597ZM 42.8873 88.8091L 42.8688 89.0584L 42.8701 89.0585L 42.8873 88.8091ZM 41.0933 88.6451L 41.1221 88.3967L 41.1211 88.3966L 41.0933 88.6451ZM 40.3972 88.5561L 40.3643 88.804L 40.3644 88.804L 40.3972 88.5561ZM 38.6032 88.2832L 38.5596 88.5294L 38.5607 88.5296L 38.6032 88.2832ZM 38.0037 88.1759L 38.0509 87.9304L 38.0503 87.9303L 38.0037 88.1759ZM 36.0057 87.7465L 36.0644 87.5035L 36.0641 87.5034L 36.0057 87.7465ZM 35.6607 87.6668L 35.6004 87.9094L 35.6024 87.9099L 35.6607 87.6668ZM 30.9626 86.2101L 31.0502 85.976L 31.0494 85.9757L 30.9626 86.2101ZM 30.5931 86.0645L 30.6834 85.8314L 30.6829 85.8312L 30.5931 86.0645ZM 28.8067 85.33L 28.7066 85.5591L 28.7067 85.5591L 28.8067 85.33ZM 28.1152 85.0172L 28.2197 84.7901L 28.2195 84.79L 28.1152 85.0172ZM 26.7153 84.3425L 26.6025 84.5656L 26.6029 84.5658L 26.7153 84.3425ZM 25.8919 83.9193L 26.0101 83.6991L 26.0088 83.6983L 25.8919 83.9193ZM 24.7143 83.2631L 24.5873 83.4784L 24.5903 83.4802L 24.7143 83.2631ZM 24.5333 83.1588L 24.2833 83.1588L 24.2833 83.3016L 24.4063 83.3741L 24.5333 83.1588ZM 24.5333 73.6L 24.7833 73.6L 24.7833 73.35L 24.5333 73.35L 24.5333 73.6ZM 21.4667 73.6L 21.4667 73.35L 21.2167 73.35L 21.2167 73.6L 21.4667 73.6ZM 21.4667 81.2023L 21.3238 81.4074L 21.7167 81.681L 21.7167 81.2023L 21.4667 81.2023ZM 20.7015 80.6579L 20.5535 80.8594L 20.5539 80.8597L 20.7015 80.6579ZM 20.2492 80.3298L 20.0989 80.5295L 20.0989 80.5295L 20.2492 80.3298ZM 18.952 79.3101L 19.1097 79.1161L 19.1087 79.1153L 18.952 79.3101ZM 18.5319 78.9667L 18.3719 79.1588L 18.3729 79.1596L 18.5319 78.9667ZM 17.2331 77.8412L 17.0648 78.026L 17.0653 78.0265L 17.2331 77.8412ZM 16.9755 77.6035L 16.8063 77.7876L 16.8072 77.7884L 16.9755 77.6035ZM 12.9735 73.3991L 12.7809 73.5585L 12.7812 73.5588L 12.9735 73.3991ZM 12.8616 73.2673L 12.6687 73.4262L 12.669 73.4267L 12.8616 73.2673ZM 11.8159 71.9363L 11.6168 72.0875L 11.6169 72.0877L 11.8159 71.9363ZM 11.4417 71.438L 11.6433 71.2901L 11.6431 71.2898L 11.4417 71.438ZM 10.902 70.679L 10.6543 70.6455L 10.6412 70.7422L 10.6971 70.8222L 10.902 70.679ZM 33.097 55.2L 33.2738 55.0232L 33.2005 54.95L 33.097 54.95L 33.097 55.2ZM 46 68.1015L 45.8232 68.2783L 46 68.455L 46.1768 68.2782L 46 68.1015ZM 58.9015 55.2L 58.9015 54.95L 58.7979 54.95L 58.7247 55.0232L 58.9015 55.2ZM 81.098 70.679L 81.3029 70.8222L 81.3588 70.7422L 81.3457 70.6455L 81.098 70.679ZM 39.0862 47.2129L 39.1731 46.9784L 39.1729 46.9784L 39.0862 47.2129ZM 26.0943 22.4173L 25.9001 22.2599L 25.8463 22.3262L 25.8443 22.4114L 26.0943 22.4173ZM 27.2167 21.0327L 27.0253 20.8718L 27.0225 20.8753L 27.2167 21.0327ZM 37.9684 18.8861L 38.0698 18.6576L 38.0696 18.6575L 37.9684 18.8861ZM 53.7096 13.5179L 53.7876 13.2803L 53.589 13.2151L 53.4897 13.399L 53.7096 13.5179ZM 65.8889 21.9481L 66.1386 21.9361L 66.1348 21.8575L 66.0866 21.7952L 65.8889 21.9481ZM 53.0119 47.1745L 52.924 46.9405L 52.9238 46.9406L 53.0119 47.1745ZM 54.5652 55.2L 54.742 55.3768L 55.1688 54.95L 54.5652 54.95L 54.5652 55.2ZM 46 63.7652L 45.8232 63.942L 46 64.1188L 46.1768 63.942L 46 63.7652ZM 37.4348 55.2L 37.4348 54.95L 36.8312 54.95L 37.258 55.3768L 37.4348 55.2ZM 46.1119 3.06973L 46.1135 2.81973L 46.1119 2.81973L 46.1119 3.06973ZM 48.3046 3.197L 48.276 3.44536L 48.2769 3.44546L 48.3046 3.197ZM 64.791 16.3668L 64.6268 16.5553L 65.3447 17.1806L 65.0266 16.2833L 64.791 16.3668ZM 53.2956 10.1921L 53.3619 9.95102L 53.3618 9.95098L 53.2956 10.1921ZM 51.9769 9.8302L 52.0431 9.58911L 51.8283 9.53018L 51.7451 9.73672L 51.9769 9.8302ZM 51.4663 11.0967L 51.2345 11.0033L 51.2345 11.0033L 51.4663 11.0967ZM 39.2119 16.0831L 39.3132 15.8546L 39.3131 15.8545L 39.2119 16.0831ZM 26.9192 17.2025L 26.6799 17.1301L 26.4643 17.8425L 27.0663 17.4046L 26.9192 17.2025ZM 31.9194 8.8918L 31.7428 8.71484L 31.7428 8.71485L 31.9194 8.8918ZM 30.6391 5.91867L 30.8065 6.10435L 30.5493 5.68533L 30.6391 5.91867ZM 29.7528 6.7206L 29.5765 6.54335L 29.5762 6.54367L 29.7528 6.7206ZM 38.0221 50.0879L 38.1105 49.854L 38.1088 49.8534L 38.0221 50.0879ZM 8.57287 66.9975L 8.35504 67.1201L 8.64281 67.6311L 8.81221 67.0697L 8.57287 66.9975ZM 92.25 46C 92.25 20.4975 71.5025 -0.25 46 -0.25L 46 0.25C 71.2263 0.25 91.75 20.7737 91.75 46L 92.25 46ZM 46 -0.25C 20.4975 -0.25 -0.25 20.4975 -0.25 46L 0.25 46C 0.25 20.7737 20.7737 0.25 46 0.25L 46 -0.25ZM -0.25 46C -0.246919 55.4569 2.624 64.2898 7.51704 71.6198L 7.93283 71.3421C 3.07387 64.0716 0.246919 55.3786 0.25 46L -0.25 46ZM 7.47606 71.4572L 7.47299 71.4894L 7.97074 71.5368L 7.97381 71.5046L 7.47606 71.4572ZM 7.51544 71.6542L 7.83284 72.1188L 8.24569 71.8367L 7.92829 71.3721L 7.51544 71.6542ZM 7.83296 72.1189C 8.11341 72.5285 8.41336 72.9136 8.6995 73.3033L 9.1025 73.0074C 8.81211 72.612 8.51712 72.2335 8.24557 71.8365L 7.83296 72.1189ZM 8.69915 73.3028C 8.81489 73.4612 8.9308 73.6235 9.05213 73.7853L 9.45213 73.4853C 9.33426 73.3281 9.22018 73.1684 9.10285 73.0078L 8.69915 73.3028ZM 9.05244 73.7857C 9.41914 74.2725 9.79783 74.7517 10.1809 75.2209L 10.5682 74.9047C 10.1876 74.4386 9.815 73.9671 9.45183 73.4849L 9.05244 73.7857ZM 10.181 75.2211C 10.2924 75.3572 10.4054 75.4918 10.5173 75.6252L 10.9003 75.3038C 10.7884 75.1704 10.6774 75.0382 10.568 74.9045L 10.181 75.2211ZM 10.5169 75.6248C 12.2984 77.757 14.2616 79.717 16.3645 81.4739L 16.685 81.0901C 14.5988 79.3479 12.6673 77.4194 10.9007 75.3043L 10.5169 75.6248ZM 16.3649 81.4742C 16.4909 81.579 16.6172 81.6868 16.7478 81.7941L 17.0652 81.4077C 16.9382 81.3035 16.8131 81.1966 16.6846 81.0898L 16.3649 81.4742ZM 16.7485 81.7947C 17.2069 82.1685 17.6723 82.5364 18.1454 82.8924L 18.446 82.4929C 17.9777 82.1405 17.52 81.7786 17.0645 81.4072L 16.7485 81.7947ZM 18.1447 82.8919C 18.3372 83.0378 18.5318 83.1783 18.7225 83.3187L 19.0189 82.9161C 18.8263 82.7743 18.6346 82.6358 18.4468 82.4934L 18.1447 82.8919ZM 18.723 83.319C 19.1711 83.6475 19.6227 83.9753 20.0861 84.2889L 20.3663 83.8748C 19.9097 83.5659 19.4658 83.2436 19.0185 82.9158L 18.723 83.319ZM 20.0854 84.2885C 20.3357 84.4589 20.5922 84.6165 20.8376 84.7771L 21.1113 84.3587C 20.86 84.1943 20.6074 84.0391 20.367 83.8753L 20.0854 84.2885ZM 20.8384 84.7776C 21.4783 85.193 22.1277 85.5965 22.7873 85.9787L 23.0379 85.5461C 22.385 85.1678 21.7464 84.7709 21.1106 84.3582L 20.8384 84.7776ZM 22.7865 85.9783C 23.2439 86.2453 23.7062 86.5128 24.1773 86.7661L 24.4141 86.3257C 23.9498 86.0761 23.4952 85.8131 23.0387 85.5465L 22.7865 85.9783ZM 24.1772 86.7661C 24.4636 86.9201 24.7543 87.0624 25.0376 87.2071L 25.265 86.7618C 24.9779 86.6152 24.692 86.4753 24.4141 86.3258L 24.1772 86.7661ZM 25.0375 87.2071C 25.5374 87.4624 26.0414 87.7113 26.5515 87.9487L 26.7625 87.4953C 26.2576 87.2604 25.7618 87.0156 25.265 86.7618L 25.0375 87.2071ZM 26.5523 87.949C 26.8089 88.0674 27.067 88.1848 27.326 88.2989L 27.5275 87.8413C 27.2713 87.7284 27.0172 87.6128 26.7617 87.495L 26.5523 87.949ZM 27.3253 88.2986C 27.9154 88.5605 28.5152 88.8094 29.1168 89.0463L 29.3001 88.5811C 28.7027 88.3458 28.1126 88.101 27.5282 87.8416L 27.3253 88.2986ZM 29.1163 89.0461C 29.3007 89.1192 29.4858 89.1948 29.6752 89.2678L 29.8549 88.8012C 29.6702 88.7301 29.4873 88.6554 29.3007 88.5814L 29.1163 89.0461ZM 29.6766 89.2684C 31.3284 89.8933 33.0321 90.4312 34.7674 90.8656L 34.8888 90.3805C 33.1681 89.9501 31.4922 89.4209 29.8535 88.8007L 29.6766 89.2684ZM 34.765 90.865C 34.8436 90.8853 34.9181 90.8997 34.9831 90.9153L 35.0994 90.429C 35.0233 90.4109 34.9538 90.3976 34.8912 90.3812L 34.765 90.865ZM 34.9818 90.9149C 35.7486 91.1028 36.5262 91.2713 37.3082 91.4206L 37.402 90.9295C 36.6261 90.7814 35.8611 90.6156 35.1008 90.4293L 34.9818 90.9149ZM 37.3078 91.4206C 37.5174 91.4609 37.7262 91.4965 37.9323 91.5331L 38.0198 91.0409C 37.8119 91.0039 37.6067 90.9689 37.4023 90.9296L 37.3078 91.4206ZM 37.9325 91.5332C 38.5853 91.6486 39.2438 91.7507 39.9059 91.8384L 39.9716 91.3428C 39.315 91.2557 38.6671 91.1554 38.0196 91.0408L 37.9325 91.5332ZM 39.9055 91.8384C 40.1576 91.8722 40.409 91.9046 40.6613 91.9354L 40.7219 91.439C 40.4712 91.4085 40.2228 91.3765 39.972 91.3428L 39.9055 91.8384ZM 40.6631 91.9356C 41.3086 92.0095 41.9608 92.0682 42.613 92.1159L 42.6495 91.6173C 42.0015 91.5699 41.3595 91.5121 40.7201 91.4388L 40.6631 91.9356ZM 42.6123 92.1159C 42.8522 92.1341 43.0953 92.1573 43.3423 92.1714L 43.3707 91.6722C 43.1333 91.6587 42.8949 91.6359 42.6502 91.6173L 42.6123 92.1159ZM 43.3434 92.1715C 44.2209 92.2176 45.1076 92.25 46 92.25L 46 91.75C 45.1168 91.75 44.2432 91.718 43.3696 91.6721L 43.3434 92.1715ZM 46 92.25C 46.8924 92.25 47.7795 92.2175 48.6575 92.1683L 48.6295 91.6691C 47.7564 91.7181 46.8832 91.75 46 91.75L 46 92.25ZM 48.6577 92.1683C 48.9055 92.1541 49.1478 92.1295 49.3861 92.1129L 49.3514 91.6141C 49.1051 91.6313 48.8659 91.6557 48.6292 91.6691L 48.6577 92.1683ZM 49.387 92.1129C 50.0389 92.0652 50.6914 92.008 51.3374 91.9324L 51.2794 91.4358C 50.6405 91.5106 49.9988 91.5668 49.3505 91.6142L 49.387 92.1129ZM 51.3372 91.9325C 51.5909 91.9031 51.8447 91.869 52.0947 91.8353L 52.0278 91.3398C 51.778 91.3735 51.5289 91.4069 51.2796 91.4358L 51.3372 91.9325ZM 52.0941 91.8354C 52.7562 91.7476 53.4147 91.6456 54.0675 91.5301L 53.9804 91.0378C 53.3329 91.1523 52.685 91.2527 52.0284 91.3397L 52.0941 91.8354ZM 54.0677 91.5301C 54.2738 91.4934 54.4826 91.4578 54.6922 91.4175L 54.5977 90.9265C 54.3933 90.9659 54.1881 91.0008 53.9802 91.0378L 54.0677 91.5301ZM 54.6918 91.4176C 55.4738 91.2682 56.2514 91.0997 57.0182 90.9119L 56.8992 90.4262C 56.1389 90.6125 55.3739 90.7783 54.598 90.9264L 54.6918 91.4176ZM 57.0169 90.9122C 57.0844 90.896 57.1564 90.8807 57.23 90.8631L 57.1137 90.3769C 57.0462 90.393 56.9742 90.4083 56.9006 90.4259L 57.0169 90.9122ZM 57.2325 90.8625C 58.9679 90.4282 60.6716 89.8902 62.3234 89.2653L 62.1465 88.7976C 60.5078 89.4178 58.8319 89.947 57.1112 90.3775L 57.2325 90.8625ZM 62.3231 89.2654C 62.5139 89.1934 62.701 89.1161 62.8861 89.0433L 62.7031 88.578C 62.514 88.6524 62.3302 88.7284 62.1467 88.7975L 62.3231 89.2654ZM 62.8862 89.0433C 63.488 88.8063 64.086 88.5574 64.6757 88.2973L 64.4739 87.8398C 63.889 88.0979 63.3003 88.3428 62.703 88.5781L 62.8862 89.0433ZM 64.6756 88.2973C 64.9343 88.1833 65.1941 88.0658 65.4497 87.9473L 65.2393 87.4937C 64.9859 87.6112 64.7305 87.7268 64.474 87.8397L 64.6756 88.2973ZM 65.45 87.9471C 65.96 87.7098 66.4657 87.4609 66.9643 87.2054L 66.7363 86.7604C 66.2412 87.0141 65.7441 87.2588 65.2391 87.4938L 65.45 87.9471ZM 66.964 87.2056C 67.2477 87.0606 67.5379 86.9171 67.8234 86.7651L 67.5883 86.3237C 67.3095 86.4723 67.0232 86.6139 66.7365 86.7603L 66.964 87.2056ZM 67.8243 86.7646C 68.2955 86.5112 68.7561 86.2438 69.2147 85.9769L 68.9632 85.5448C 68.5048 85.8115 68.0516 86.0747 67.5875 86.3242L 67.8243 86.7646ZM 69.2146 85.977C 69.8737 85.5935 70.5246 85.1915 71.1634 84.776L 70.8907 84.3568C 70.2569 84.7693 69.6166 85.1646 68.9632 85.5448L 69.2146 85.977ZM 71.1634 84.776C 71.4109 84.615 71.6661 84.4571 71.9161 84.2869L 71.6346 83.8737C 71.3939 84.0378 71.1431 84.1927 70.8908 84.3568L 71.1634 84.776ZM 71.9158 84.2872C 72.3775 83.9737 72.8287 83.6461 73.2783 83.3177L 72.9833 82.914C 72.5344 83.2419 72.0901 83.5645 71.6349 83.8735L 71.9158 84.2872ZM 73.279 83.3172C 73.4697 83.1768 73.6644 83.0362 73.8568 82.8904L 73.5548 82.4919C 73.367 82.6343 73.1752 82.7728 72.9826 82.9145L 73.279 83.3172ZM 73.8564 82.8907C 74.3277 82.5349 74.7944 82.1671 75.253 81.7931L 74.937 81.4056C 74.4817 81.7769 74.0223 82.139 73.5552 82.4916L 73.8564 82.8907ZM 75.2537 81.7926C 75.3843 81.6853 75.5106 81.5775 75.6366 81.4727L 75.317 81.0882C 75.1885 81.1951 75.0633 81.3019 74.9363 81.4062L 75.2537 81.7926ZM 75.6371 81.4723C 77.7415 79.714 79.7031 77.7554 81.4861 75.6218L 81.1024 75.3012C 79.3342 77.4179 77.4042 79.3448 75.3165 81.0886L 75.6371 81.4723ZM 81.4858 75.6222C 81.5978 75.4887 81.7097 75.3549 81.82 75.2182L 81.4309 74.9043C 81.3235 75.0375 81.2146 75.1675 81.1028 75.3008L 81.4858 75.6222ZM 81.8191 75.2194C 82.2022 74.7502 82.5809 74.271 82.9476 73.7841L 82.5482 73.4833C 82.185 73.9655 81.8124 74.437 81.4318 74.9032L 81.8191 75.2194ZM 82.9472 73.7847C 83.0693 73.6233 83.1839 73.4607 83.3006 73.3016L 82.8974 73.006C 82.7779 73.1689 82.6656 73.3283 82.5486 73.4828L 82.9472 73.7847ZM 83.3009 73.3013C 83.5851 72.9121 83.8864 72.5272 84.167 72.1174L 83.7544 71.835C 83.4831 72.2317 83.1864 72.6104 82.8971 73.0063L 83.3009 73.3013ZM 84.1672 72.1172L 84.4846 71.6526L 84.0717 71.3706L 83.7543 71.8352L 84.1672 72.1172ZM 84.527 71.4879L 84.5239 71.4557L 84.0262 71.5031L 84.0293 71.5353L 84.527 71.4879ZM 84.4829 71.6183C 89.376 64.2898 92.2469 55.4569 92.25 46L 91.75 46C 91.7531 55.3786 88.9261 64.0716 84.0672 71.3405L 84.4829 71.6183ZM 88.6833 46C 88.6857 53.5897 86.6953 60.6886 83.2093 66.8748L 83.645 67.1201C 87.1571 60.8802 89.181 53.6578 89.1833 46L 88.6833 46ZM 83.6665 66.9252C 81.0099 58.1209 72.8805 51.8833 63.3435 51.8833L 63.3435 52.3833C 72.6573 52.3833 80.5942 58.4738 83.1878 67.0697L 83.6665 66.9252ZM 63.3435 51.8833L 61.9697 51.8833L 61.9697 52.3833L 63.3435 52.3833L 63.3435 51.8833ZM 61.9697 51.8833L 54.2279 51.8833L 54.2279 52.3833L 61.9697 52.3833L 61.9697 51.8833ZM 54.2279 51.8833C 54.0558 51.8833 53.9167 51.7433 53.9167 51.5737L 53.4167 51.5737C 53.4167 52.0204 53.7805 52.3833 54.2279 52.3833L 54.2279 51.8833ZM 53.9167 51.5737L 53.9167 50.5847L 53.4167 50.5847L 53.4167 51.5737L 53.9167 51.5737ZM 53.9167 50.5847C 53.9167 50.4554 54.0272 50.3371 54.1799 50.2782L 53.9999 49.8117C 53.763 49.9031 53.4167 50.1527 53.4167 50.5847L 53.9167 50.5847ZM 54.1779 50.2789C 59.201 48.3903 63.2473 43.5457 65.8734 37.8556C 68.5014 32.1613 69.73 25.5724 69.078 20.1336L 68.5816 20.1931C 69.2207 25.5244 68.0159 32.0202 65.4194 37.6461C 62.821 43.2762 58.8519 47.9874 54.0019 49.8109L 54.1779 50.2789ZM 69.078 20.1335C 68.3945 14.4775 65.5739 9.38627 61.5097 5.72515L 61.1753 6.09685C 65.1826 9.6976 67.9188 14.6313 68.5816 20.1931L 69.078 20.1335ZM 61.2529 6.14438C 77.2767 12.2987 88.6833 27.8391 88.6833 46L 89.1833 46C 89.1833 27.6246 77.6421 11.9034 61.4322 5.67762L 61.2529 6.14438ZM 80.3576 71.2889C 80.2337 71.4556 80.1103 71.6201 79.985 71.7852L 80.3832 72.0875C 80.5094 71.9213 80.6344 71.7547 80.7589 71.5871L 80.3576 71.2889ZM 79.9852 71.7849C 79.6438 72.2334 79.3018 72.6758 78.9455 73.1083L 79.3313 73.4262C 79.6926 72.9878 80.0406 72.5378 80.3831 72.0877L 79.9852 71.7849ZM 78.9458 73.1079C 78.912 73.1488 78.8737 73.1917 78.8339 73.2397L 79.2191 73.5585C 79.2528 73.5176 79.2912 73.4747 79.331 73.4267L 78.9458 73.1079ZM 78.8342 73.2393C 77.6008 74.7233 76.2738 76.1157 74.8537 77.421L 75.1921 77.7891C 76.6241 76.4724 77.9743 75.0558 79.2187 73.5589L 78.8342 73.2393ZM 74.853 77.4217C 74.7677 77.5008 74.6851 77.5789 74.6019 77.6532L 74.9349 78.0261C 75.0234 77.9471 75.1095 77.8658 75.1929 77.7884L 74.853 77.4217ZM 74.6005 77.6544C 74.1783 78.0371 73.7466 78.408 73.3078 78.7749L 73.6285 79.1584C 74.0698 78.7894 74.5091 78.412 74.9363 78.0249L 74.6005 77.6544ZM 73.3081 78.7746C 73.1712 78.8886 73.0329 79.0012 72.8933 79.1146L 73.2088 79.5026C 73.3483 79.3891 73.489 79.2747 73.6282 79.1587L 73.3081 78.7746ZM 72.8933 79.1147C 72.4667 79.4618 72.0395 79.8008 71.602 80.1301L 71.9027 80.5295C 72.3453 80.1964 72.7799 79.8515 73.2088 79.5025L 72.8933 79.1147ZM 71.602 80.13C 71.4574 80.2389 71.3052 80.3439 71.152 80.4565L 71.448 80.8594C 71.5953 80.7512 71.7498 80.6445 71.9027 80.5295L 71.602 80.13ZM 71.1522 80.4563C 70.9013 80.6403 70.6475 80.8181 70.3914 80.9975L 70.6783 81.407C 70.9344 81.2276 71.1926 81.0467 71.4478 80.8595L 71.1522 80.4563ZM 70.7849 81.2023L 70.7849 73.6L 70.2849 73.6L 70.2849 81.2023L 70.7849 81.2023ZM 70.5349 73.35L 67.4682 73.35L 67.4682 73.85L 70.5349 73.85L 70.5349 73.35ZM 67.2182 73.6L 67.2182 83.1573L 67.7182 83.1573L 67.7182 73.6L 67.2182 73.6ZM 67.3412 82.9419C 67.2835 82.976 67.2249 83.009 67.1626 83.0448L 67.4119 83.4783C 67.4723 83.4435 67.5333 83.4091 67.5952 83.3726L 67.3412 82.9419ZM 67.163 83.0446C 66.7722 83.2684 66.3864 83.4887 65.9928 83.6968L 66.2266 84.1388C 66.6272 83.9268 67.0203 83.7024 67.4115 83.4785L 67.163 83.0446ZM 65.9924 83.697C 65.7232 83.84 65.4495 83.9784 65.1735 84.1179L 65.3991 84.5641C 65.6751 84.4246 65.9533 84.2839 66.2269 84.1386L 65.9924 83.697ZM 65.1739 84.1177C 64.7126 84.3499 64.2505 84.5733 63.782 84.7885L 63.9907 85.2429C 64.4637 85.0256 64.9338 84.7983 65.3987 84.5643L 65.1739 84.1177ZM 63.7819 84.7885C 63.5516 84.8945 63.3253 84.9993 63.0962 85.0994L 63.2965 85.5575C 63.5305 85.4552 63.7611 85.3485 63.9908 85.2428L 63.7819 84.7885ZM 63.0963 85.0993C 62.5085 85.3559 61.917 85.5991 61.3186 85.8296L 61.4983 86.2962C 62.102 86.0637 62.7035 85.8162 63.2963 85.5576L 63.0963 85.0993ZM 61.3191 85.8294C 61.1902 85.8789 61.0703 85.9305 60.9521 85.9742L 61.1258 86.443C 61.256 86.3947 61.3784 86.3421 61.4978 86.2964L 61.3191 85.8294ZM 60.9514 85.9744C 59.4246 86.5455 57.8713 87.0289 56.2822 87.4226L 56.4025 87.9079C 58.0058 87.5105 59.5866 87.0186 61.1265 86.4428L 60.9514 85.9744ZM 56.2809 87.4229C 56.1724 87.4505 56.0574 87.4732 55.9375 87.5019L 56.0541 87.9881C 56.1642 87.9616 56.2822 87.9383 56.4037 87.9076L 56.2809 87.4229ZM 55.9377 87.5018C 55.2795 87.6592 54.6185 87.802 53.9518 87.9271L 54.044 88.4185C 54.7174 88.2921 55.3904 88.1467 56.0539 87.9882L 55.9377 87.5018ZM 53.9507 87.9273C 53.7541 87.9651 53.5567 87.9985 53.3551 88.0339L 53.4416 88.5264C 53.6417 88.4912 53.843 88.4571 54.0451 88.4183L 53.9507 87.9273ZM 53.3552 88.0339C 52.7631 88.1377 52.1706 88.2273 51.5721 88.3052L 51.6366 88.801C 52.2402 88.7224 52.8437 88.6311 53.4415 88.5264L 53.3552 88.0339ZM 51.5715 88.3052C 51.3392 88.336 51.1101 88.3679 50.8804 88.3935L 50.936 88.8904C 51.1724 88.864 51.4064 88.8315 51.6372 88.8009L 51.5715 88.3052ZM 50.8794 88.3937C 50.2883 88.4622 49.6955 88.5124 49.0958 88.5567L 49.1326 89.0554C 49.735 89.0108 50.3382 88.9598 50.937 88.8903L 50.8794 88.3937ZM 49.097 88.5567C 48.8703 88.5723 48.6513 88.5952 48.4335 88.607L 48.4609 89.1063C 48.6909 89.0936 48.9134 89.0705 49.1314 89.0555L 49.097 88.5567ZM 48.4322 88.6071C 47.6212 88.656 46.8146 88.6834 46 88.6833L 46 89.1833C 46.823 89.1833 47.6448 89.1555 48.4622 89.1062L 48.4322 88.6071ZM 46 88.6833C 45.1854 88.6834 44.3783 88.656 43.5685 88.6101L 43.5402 89.1093C 44.3557 89.1555 45.177 89.1833 46 89.1833L 46 88.6833ZM 43.568 88.6101C 43.3503 88.5983 43.1312 88.5754 42.9045 88.5597L 42.8701 89.0585C 43.0881 89.0735 43.3107 89.0967 43.5407 89.1094L 43.568 88.6101ZM 42.9058 88.5598C 42.3076 88.5154 41.7132 88.4653 41.1221 88.3967L 41.0645 88.8934C 41.6633 88.9628 42.268 89.0139 42.8688 89.0584L 42.9058 88.5598ZM 41.1211 88.3966C 40.8914 88.3709 40.6624 88.3391 40.43 88.3083L 40.3644 88.804C 40.5951 88.8345 40.8292 88.8671 41.0655 88.8935L 41.1211 88.3966ZM 40.4301 88.3083C 39.8313 88.2289 39.2381 88.1391 38.6457 88.0368L 38.5607 88.5296C 39.1582 88.6327 39.761 88.7239 40.3643 88.804L 40.4301 88.3083ZM 38.6468 88.037C 38.4463 88.0016 38.2473 87.9682 38.0509 87.9304L 37.9565 88.4214C 38.1587 88.4602 38.3614 88.4943 38.5596 88.5294L 38.6468 88.037ZM 38.0503 87.9303C 37.3831 87.8035 36.7221 87.6622 36.0644 87.5035L 35.9471 87.9896C 36.6111 88.1498 37.2841 88.2937 37.957 88.4215L 38.0503 87.9303ZM 36.0641 87.5034C 35.946 87.4751 35.831 87.4506 35.7191 87.4237L 35.6024 87.9099C 35.7205 87.9382 35.8355 87.9628 35.9474 87.9896L 36.0641 87.5034ZM 35.7211 87.4242C 34.1317 87.0289 32.5768 86.547 31.0502 85.976L 30.875 86.4443C 32.4151 87.0202 33.9973 87.5105 35.6004 87.9094L 35.7211 87.4242ZM 31.0494 85.9757C 30.9307 85.9318 30.8098 85.8804 30.6834 85.8314L 30.5027 86.2976C 30.6217 86.3436 30.7461 86.3965 30.8758 86.4446L 31.0494 85.9757ZM 30.6829 85.8312C 30.0846 85.6007 29.4947 85.3575 28.9067 85.1009L 28.7067 85.5591C 29.2994 85.8177 29.8994 86.0652 30.5032 86.2978L 30.6829 85.8312ZM 28.9069 85.1009C 28.6775 85.0007 28.4497 84.8959 28.2197 84.7901L 28.0107 85.2443C 28.2407 85.3501 28.4729 85.4569 28.7066 85.5591L 28.9069 85.1009ZM 28.2195 84.79C 27.7511 84.5749 27.2889 84.3514 26.8277 84.1192L 26.6029 84.5658C 27.0677 84.7998 27.5379 85.0271 28.0109 85.2444L 28.2195 84.79ZM 26.8281 84.1194C 26.5516 83.9796 26.2783 83.843 26.0101 83.6991L 25.7736 84.1396C 26.0482 84.287 26.327 84.4264 26.6025 84.5656L 26.8281 84.1194ZM 26.0088 83.6983C 25.6153 83.4903 25.2278 83.2684 24.8382 83.046L 24.5903 83.4802C 24.9797 83.7024 25.3742 83.9283 25.775 84.1403L 26.0088 83.6983ZM 24.8413 83.0477C 24.7782 83.0106 24.7169 82.9768 24.6603 82.9435L 24.4063 83.3741C 24.4694 83.4113 24.5307 83.445 24.5873 83.4784L 24.8413 83.0477ZM 24.7833 83.1588L 24.7833 73.6L 24.2833 73.6L 24.2833 83.1588L 24.7833 83.1588ZM 24.5333 73.35L 21.4667 73.35L 21.4667 73.85L 24.5333 73.85L 24.5333 73.35ZM 21.2167 73.6L 21.2167 81.2023L 21.7167 81.2023L 21.7167 73.6L 21.2167 73.6ZM 21.6095 80.9971C 21.3526 80.8182 21.099 80.639 20.8492 80.4562L 20.5539 80.8597C 20.807 81.0449 21.0655 81.2275 21.3238 81.4074L 21.6095 80.9971ZM 20.8496 80.4565C 20.6963 80.3439 20.5441 80.2389 20.3995 80.13L 20.0989 80.5295C 20.2517 80.6445 20.4062 80.7512 20.5535 80.8594L 20.8496 80.4565ZM 20.3995 80.1301C 19.962 79.8008 19.5348 79.4618 19.1097 79.1161L 18.7943 79.5041C 19.2217 79.8516 19.6562 80.1964 20.0989 80.5295L 20.3995 80.1301ZM 19.1087 79.1153C 18.9688 79.0028 18.8304 78.8887 18.6909 78.7737L 18.3729 79.1596C 18.5124 79.2746 18.6531 79.3905 18.7953 79.5049L 19.1087 79.1153ZM 18.6918 78.7746C 18.2534 78.4095 17.8234 78.0387 17.401 77.6559L 17.0653 78.0265C 17.4923 78.4134 17.9302 78.7909 18.3719 79.1588L 18.6918 78.7746ZM 17.4015 77.6564C 17.3174 77.5798 17.2315 77.4985 17.1439 77.4187L 16.8072 77.7884C 16.8913 77.8649 16.9772 77.9462 17.0648 78.026L 17.4015 77.6564ZM 17.1447 77.4195C 15.7247 76.1141 14.3977 74.7233 13.1659 73.2394L 12.7812 73.5588C 14.0242 75.0558 15.3744 76.4709 16.8063 77.7876L 17.1447 77.4195ZM 13.1661 73.2397C 13.1263 73.1917 13.088 73.1488 13.0542 73.1079L 12.669 73.4267C 12.7088 73.4747 12.7472 73.5176 12.7809 73.5585L 13.1661 73.2397ZM 13.0545 73.1083C 12.6982 72.6758 12.3562 72.2334 12.0148 71.7849L 11.6169 72.0877C 11.9594 72.5378 12.3074 72.9878 12.6687 73.4262L 13.0545 73.1083ZM 12.015 71.7852C 11.8892 71.6196 11.7647 71.4556 11.6433 71.2901L 11.2402 71.5859C 11.3641 71.7547 11.491 71.9219 11.6168 72.0875L 12.015 71.7852ZM 11.6431 71.2898C 11.4609 71.0423 11.2848 70.7903 11.1069 70.5358L 10.6971 70.8222C 10.8749 71.0767 11.0546 71.3338 11.2404 71.5862L 11.6431 71.2898ZM 11.1497 70.7125C 12.3336 61.9708 19.7579 55.45 28.6565 55.45L 28.6565 54.95C 19.5077 54.95 11.8716 61.6558 10.6543 70.6455L 11.1497 70.7125ZM 28.6565 55.45L 33.097 55.45L 33.097 54.95L 28.6565 54.95L 28.6565 55.45ZM 32.9202 55.3768L 45.8232 68.2783L 46.1768 67.9247L 33.2738 55.0232L 32.9202 55.3768ZM 46.1768 68.2782L 59.0782 55.3768L 58.7247 55.0232L 45.8232 67.9247L 46.1768 68.2782ZM 58.9015 55.45L 63.342 55.45L 63.342 54.95L 58.9015 54.95L 58.9015 55.45ZM 63.342 55.45C 72.2406 55.45 79.6665 61.9708 80.8503 70.7125L 81.3457 70.6455C 80.1283 61.6557 72.4908 54.95 63.342 54.95L 63.342 55.45ZM 80.8931 70.5358C 80.7149 70.7907 80.5406 71.0424 80.3575 71.289L 80.759 71.587C 80.9469 71.3338 81.1253 71.0763 81.3029 70.8222L 80.8931 70.5358ZM 39.1729 46.9784C 35.5946 45.6547 32.3774 41.9119 30.0496 37.3396C 27.722 32.7709 26.3146 27.4528 26.3167 23L 25.8167 23C 25.8188 27.5172 27.2549 32.9493 29.604 37.5664C 31.9528 42.1799 35.2454 46.0586 38.9995 47.4473L 39.1729 46.9784ZM 26.3167 23C 26.3162 22.8187 26.339 22.6299 26.3442 22.4232L 25.8443 22.4114C 25.8403 22.5942 25.8171 22.7888 25.8167 23L 26.3167 23ZM 26.2885 22.5748L 27.4109 21.1902L 27.0225 20.8753L 25.9001 22.2599L 26.2885 22.5748ZM 27.408 21.1936C 29.86 18.2768 34.0578 17.4279 37.8672 19.1147L 38.0696 18.6575C 34.0805 16.8911 29.6364 17.7657 27.0253 20.8719L 27.408 21.1936ZM 37.867 19.1146C 39.4601 19.8201 41.1809 20.182 42.9333 20.1833L 42.9333 19.6833C 41.2327 19.6847 39.6138 19.3443 38.0698 18.6576L 37.867 19.1146ZM 42.9333 20.1833C 47.5812 20.1833 51.7579 17.6562 53.9296 13.6367L 53.4897 13.399C 51.4048 17.2578 47.3965 19.6833 42.9333 19.6833L 42.9333 20.1833ZM 53.6316 13.7554C 58.4773 15.344 62.7712 18.3222 65.6911 22.1011L 66.0866 21.7952C 63.1155 17.9596 58.7001 14.8964 53.7876 13.2803L 53.6316 13.7554ZM 65.6392 21.9601C 65.8645 26.603 64.6148 32.1134 62.3284 36.8569C 60.0431 41.6021 56.7493 45.5023 52.924 46.9405L 53.0999 47.4085C 57.1007 45.9043 60.47 41.868 62.7789 37.0739C 65.0868 32.2782 66.3625 26.6466 66.1386 21.9361L 65.6392 21.9601ZM 52.9238 46.9406C 51.3644 47.5278 50.35 48.957 50.35 50.5847L 50.85 50.5847C 50.85 49.1733 51.7277 47.9253 53.1 47.4085L 52.9238 46.9406ZM 50.35 50.5847L 50.35 51.5737L 50.85 51.5737L 50.85 50.5847L 50.35 50.5847ZM 50.35 51.5737C 50.35 53.7097 52.0903 55.45 54.2263 55.45L 54.2263 54.95C 52.3665 54.95 50.85 53.4335 50.85 51.5737L 50.35 51.5737ZM 54.2263 55.45L 54.5652 55.45L 54.5652 54.95L 54.2263 54.95L 54.2263 55.45ZM 54.3884 55.0232L 45.8232 63.5884L 46.1768 63.942L 54.742 55.3768L 54.3884 55.0232ZM 46.1768 63.5884L 37.6116 55.0232L 37.258 55.3768L 45.8232 63.942L 46.1768 63.5884ZM 37.4348 55.45L 37.7737 55.45L 37.7737 54.95L 37.4348 54.95L 37.4348 55.45ZM 37.7737 55.45C 39.9097 55.45 41.65 53.7097 41.65 51.5737L 41.15 51.5737C 41.15 53.4335 39.6335 54.95 37.7737 54.95L 37.7737 55.45ZM 41.65 51.5737L 41.65 50.6L 41.15 50.6L 41.15 51.5737L 41.65 51.5737ZM 41.65 50.6C 41.65 48.9872 40.6607 47.5297 39.1731 46.9784L 38.9993 47.4473C 40.284 47.9234 41.15 49.189 41.15 50.6L 41.65 50.6ZM 46.0613 3.31973C 46.0797 3.31973 46.0951 3.31973 46.1119 3.31973L 46.1119 2.81973C 46.0951 2.81973 46.0797 2.81973 46.0613 2.81973L 46.0613 3.31973ZM 46.1104 3.31973C 46.854 3.32421 47.5779 3.36482 48.276 3.44536L 48.3332 2.94864C 47.6206 2.86664 46.8695 2.82445 46.1135 2.81974L 46.1104 3.31973ZM 48.2769 3.44546C 55.7822 4.28241 62.0946 9.50865 64.5554 16.4503L 65.0266 16.2833C 62.5041 9.16735 56.0346 3.80745 48.3323 2.94854L 48.2769 3.44546ZM 64.9552 16.1783C 61.6909 13.3373 57.6658 11.1364 53.3619 9.95102L 53.2293 10.4331C 57.4783 11.5999 61.4051 13.7475 64.6268 16.5553L 64.9552 16.1783ZM 53.3618 9.95098L 52.0431 9.58911L 51.9108 10.0713L 53.2294 10.4332L 53.3618 9.95098ZM 51.7451 9.73672L 51.2345 11.0033L 51.6982 11.1902L 52.2088 9.92368L 51.7451 9.73672ZM 51.2345 11.0033C 49.8603 14.4127 46.603 16.6167 42.9333 16.6167L 42.9333 17.1167C 46.8077 17.1167 50.248 14.7881 51.6982 11.1902L 51.2345 11.0033ZM 42.9333 16.6167C 41.6636 16.618 40.4617 16.365 39.3132 15.8546L 39.1106 16.3117C 40.3081 16.8408 41.6118 17.1153 42.9333 17.1167L 42.9333 16.6167ZM 39.3131 15.8545C 34.994 13.9433 30.2683 14.4569 26.7721 17.0003L 27.0663 17.4046C 30.4118 14.9708 34.9474 14.4694 39.1108 16.3118L 39.3131 15.8545ZM 27.1585 17.2749C 28.0878 14.1969 29.7537 11.4038 32.096 9.06875L 31.7428 8.71485C 29.3594 11.0964 27.6304 13.995 26.6799 17.1301L 27.1585 17.2749ZM 32.096 9.06876C 35.8116 5.36071 40.7451 3.31973 46.0613 3.31973L 46.0613 2.81973C 40.6136 2.81973 35.5528 4.91263 31.7428 8.71484L 32.096 9.06876ZM 30.4717 5.73299C 30.1799 5.99612 29.8702 6.25164 29.5765 6.54335L 29.9291 6.89785C 30.2058 6.62222 30.5064 6.37482 30.8065 6.10435L 30.4717 5.73299ZM 29.5762 6.54367C 25.1746 10.9375 22.75 16.7803 22.75 23L 23.25 23C 23.25 16.9131 25.6217 11.1977 29.9294 6.89753L 29.5762 6.54367ZM 22.75 23C 22.7521 28.115 24.3734 34.1507 27.0657 39.2799C 29.7592 44.408 33.5529 48.7021 37.9354 50.3224L 38.1088 49.8534C 33.8938 48.2951 30.1765 44.1274 27.5083 39.0474C 24.839 33.9684 23.2478 28.0495 23.25 23L 22.75 23ZM 37.9336 50.3217C 37.998 50.3461 38.0833 50.4467 38.0833 50.6L 38.5833 50.6C 38.5833 50.2872 38.411 49.9677 38.1105 49.854L 37.9336 50.3217ZM 38.0833 50.6L 38.0833 51.5737L 38.5833 51.5737L 38.5833 50.6L 38.0833 50.6ZM 38.0833 51.5737C 38.0833 51.7438 37.9438 51.8833 37.7737 51.8833L 37.7737 52.3833C 38.2199 52.3833 38.5833 52.0199 38.5833 51.5737L 38.0833 51.5737ZM 37.7737 51.8833L 30.0319 51.8833L 30.0319 52.3833L 37.7737 52.3833L 37.7737 51.8833ZM 30.0319 51.8833L 28.658 51.8833L 28.658 52.3833L 30.0319 52.3833L 30.0319 51.8833ZM 28.658 51.8833C 19.1195 51.8833 10.99 58.1209 8.33352 66.9252L 8.81221 67.0697C 11.4058 58.4738 19.3427 52.3833 28.658 52.3833L 28.658 51.8833ZM 8.7907 66.8748C 5.30473 60.6886 3.31434 53.5897 3.31667 46L 2.81667 46C 2.819 53.6578 4.84287 60.8802 8.35504 67.1201L 8.7907 66.8748ZM 3.31667 46C 3.31667 27.8452 14.7141 12.3109 30.7288 6.15201L 30.5493 5.68533C 14.3487 11.9157 2.81667 27.6308 2.81667 46L 3.31667 46Z"/>
</defs>
</svg>
