<svg width="140" height="124" viewBox="0 0 140 124" version="1.1" xmlns="http://www.w3.org/2000/svg" xmlns:xlink="http://www.w3.org/1999/xlink">
<title>Icono</title>
<desc>Created using Figma</desc>
<g id="Canvas" transform="translate(-4465 198)">
<g id="Icono">
<g id="Ticket">
<g id="Bg Ticket">
<use xlink:href="#path0_fill" transform="matrix(0.599923 -0.800058 0.800058 0.599923 4469.35 -149.06)" fill="#FFFFFF"/>
<mask id="mask0_outline_ins">
<use xlink:href="#path0_fill" fill="white" transform="matrix(0.599923 -0.800058 0.800058 0.599923 4469.35 -149.06)"/>
</mask>
<g mask="url(#mask0_outline_ins)">
<use xlink:href="#path1_stroke_2x" transform="matrix(0.599923 -0.800058 0.800058 0.599923 4469.35 -149.06)" fill="#2F80ED"/>
</g>
</g>
<g id="Ellipse">
<mask id="mask1_outline_ins">
<use xlink:href="#path2_fill" fill="white" transform="matrix(0.800058 0.599923 -0.599923 0.800058 4533.15 -162.465)"/>
</mask>
<g mask="url(#mask1_outline_ins)">
<use xlink:href="#path3_stroke_2x" transform="matrix(0.800058 0.599923 -0.599923 0.800058 4533.15 -162.465)" fill="#2F80ED"/>
</g>
</g>
<g id="mark-as-favourite-star">
<path d="M 4534.55 -152.666L 4553.76 -138.267L 4539.96 -119.866L 4520.76 -134.264L 4534.55 -152.666Z" fill="#FFFFFF"/>
<g id="Group">
<g id="Vector">
<use xlink:href="#path4_fill" transform="matrix(0.800058 0.599923 -0.599923 0.800058 4534.55 -152.666)" fill="#56CCF2"/>
<mask id="mask2_outline_out">
<rect id="mask2_outline_inv" fill="white" x="-1" y="-1" width="26" height="25" transform="matrix(0.800058 0.599923 -0.599923 0.800058 4534.55 -152.666)"/>
<use xlink:href="#path4_fill" fill="black" transform="matrix(0.800058 0.599923 -0.599923 0.800058 4534.55 -152.666)"/>
</mask>
<g mask="url(#mask2_outline_out)">
<use xlink:href="#path5_stroke_2x" transform="matrix(0.800058 0.599923 -0.599923 0.800058 4534.55 -152.666)" fill="#56CCF2"/>
</g>
</g>
</g>
</g>
<g id="Circles">
<g id="Ellipse 2">
<use xlink:href="#path6_fill" transform="matrix(0.800058 0.599923 -0.599923 0.800058 4583.16 -132.47)" fill="#C4C4C4"/>
</g>
<g id="Ellipse 2.1">
<use xlink:href="#path6_fill" transform="matrix(0.800058 0.599923 -0.599923 0.800058 4579.56 -127.67)" fill="#C4C4C4"/>
</g>
<g id="Ellipse 2.2">
<use xlink:href="#path6_fill" transform="matrix(0.800058 0.599923 -0.599923 0.800058 4575.96 -122.87)" fill="#C4C4C4"/>
</g>
<g id="Ellipse 2.3">
<use xlink:href="#path6_fill" transform="matrix(0.800058 0.599923 -0.599923 0.800058 4572.36 -118.069)" fill="#C4C4C4"/>
</g>
<g id="Ellipse 2.4">
<use xlink:href="#path6_fill" transform="matrix(0.800058 0.599923 -0.599923 0.800058 4568.76 -113.269)" fill="#C4C4C4"/>
</g>
<g id="Ellipse 2.5">
<use xlink:href="#path6_fill" transform="matrix(0.800058 0.599923 -0.599923 0.800058 4565.16 -108.468)" fill="#C4C4C4"/>
</g>
<g id="Ellipse 2.6">
<use xlink:href="#path6_fill" transform="matrix(0.800058 0.599923 -0.599923 0.800058 4561.56 -103.668)" fill="#C4C4C4"/>
</g>
<g id="Ellipse 2.7">
<use xlink:href="#path6_fill" transform="matrix(0.800058 0.599923 -0.599923 0.800058 4557.96 -98.8678)" fill="#C4C4C4"/>
</g>
<g id="Ellipse 2.8">
<use xlink:href="#path6_fill" transform="matrix(0.800058 0.599923 -0.599923 0.800058 4554.36 -94.0675)" fill="#C4C4C4"/>
</g>
</g>
<g id="Circles">
<g id="Ellipse 2">
<use xlink:href="#path6_fill" transform="matrix(0.800058 0.599923 -0.599923 0.800058 4519.15 -180.464)" fill="#2F80ED"/>
</g>
<g id="Ellipse 2.1">
<use xlink:href="#path6_fill" transform="matrix(0.800058 0.599923 -0.599923 0.800058 4515.55 -175.664)" fill="#2F80ED"/>
</g>
<g id="Ellipse 2.2">
<use xlink:href="#path6_fill" transform="matrix(0.800058 0.599923 -0.599923 0.800058 4511.95 -170.863)" fill="#2F80ED"/>
</g>
<g id="Ellipse 2.3">
<use xlink:href="#path6_fill" transform="matrix(0.800058 0.599923 -0.599923 0.800058 4508.35 -166.063)" fill="#2F80ED"/>
</g>
<g id="Ellipse 2.4">
<use xlink:href="#path6_fill" transform="matrix(0.800058 0.599923 -0.599923 0.800058 4504.75 -161.263)" fill="#2F80ED"/>
</g>
<g id="Ellipse 2.5">
<use xlink:href="#path6_fill" transform="matrix(0.800058 0.599923 -0.599923 0.800058 4501.15 -156.462)" fill="#2F80ED"/>
</g>
<g id="Ellipse 2.6">
<use xlink:href="#path6_fill" transform="matrix(0.800058 0.599923 -0.599923 0.800058 4497.55 -151.662)" fill="#2F80ED"/>
</g>
<g id="Ellipse 2.7">
<use xlink:href="#path6_fill" transform="matrix(0.800058 0.599923 -0.599923 0.800058 4493.95 -146.862)" fill="#2F80ED"/>
</g>
<g id="Ellipse 2.8">
<use xlink:href="#path6_fill" transform="matrix(0.800058 0.599923 -0.599923 0.800058 4490.35 -142.061)" fill="#2F80ED"/>
</g>
</g>
</g>
<g id="Ticket">
<g id="Bg Ticket">
<use xlink:href="#path7_fill" transform="matrix(6.12323e-17 -1 1 6.12323e-17 4465 -76)" fill="#FFFFFF"/>
<mask id="mask3_outline_ins">
<use xlink:href="#path7_fill" fill="white" transform="matrix(6.12323e-17 -1 1 6.12323e-17 4465 -76)"/>
</mask>
<g mask="url(#mask3_outline_ins)">
<use xlink:href="#path8_stroke_2x" transform="matrix(6.12323e-17 -1 1 6.12323e-17 4465 -76)" fill="#2F80ED"/>
</g>
</g>
<g id="Ellipse">
<mask id="mask4_outline_ins">
<use xlink:href="#path2_fill" fill="white" transform="translate(4508 -125)"/>
</mask>
<g mask="url(#mask4_outline_ins)">
<use xlink:href="#path3_stroke_2x" transform="translate(4508 -125)" fill="#2F80ED"/>
</g>
</g>
<g id="mark-as-favourite-star">
<path d="M 4515 -118L 4539 -118L 4539 -95L 4515 -95L 4515 -118Z" fill="#FFFFFF"/>
<g id="Group">
<g id="Vector">
<use xlink:href="#path4_fill" transform="translate(4515 -118)" fill="#56CCF2"/>
<mask id="mask5_outline_out">
<rect id="mask5_outline_inv" fill="white" x="-1" y="-1" width="26" height="25" transform="translate(4515 -118)"/>
<use xlink:href="#path4_fill" fill="black" transform="translate(4515 -118)"/>
</mask>
<g mask="url(#mask5_outline_out)">
<use xlink:href="#path5_stroke_2x" transform="translate(4515 -118)" fill="#56CCF2"/>
</g>
</g>
</g>
</g>
<g id="Circles">
<g id="Ellipse 2">
<use xlink:href="#path6_fill" transform="translate(4566 -131)" fill="#2F80ED"/>
</g>
<g id="Ellipse 2.1">
<use xlink:href="#path6_fill" transform="translate(4566 -125)" fill="#2F80ED"/>
</g>
<g id="Ellipse 2.2">
<use xlink:href="#path6_fill" transform="translate(4566 -119)" fill="#2F80ED"/>
</g>
<g id="Ellipse 2.3">
<use xlink:href="#path6_fill" transform="translate(4566 -113)" fill="#2F80ED"/>
</g>
<g id="Ellipse 2.4">
<use xlink:href="#path6_fill" transform="translate(4566 -107)" fill="#2F80ED"/>
</g>
<g id="Ellipse 2.5">
<use xlink:href="#path6_fill" transform="translate(4566 -101)" fill="#2F80ED"/>
</g>
<g id="Ellipse 2.6">
<use xlink:href="#path6_fill" transform="translate(4566 -95)" fill="#2F80ED"/>
</g>
<g id="Ellipse 2.7">
<use xlink:href="#path6_fill" transform="translate(4566 -89)" fill="#2F80ED"/>
</g>
<g id="Ellipse 2.8">
<use xlink:href="#path6_fill" transform="translate(4566 -83)" fill="#2F80ED"/>
</g>
</g>
<g id="Circles">
<g id="Ellipse 2">
<use xlink:href="#path6_fill" transform="translate(4486 -131)" fill="#2F80ED"/>
</g>
<g id="Ellipse 2.1">
<use xlink:href="#path6_fill" transform="translate(4486 -125)" fill="#2F80ED"/>
</g>
<g id="Ellipse 2.2">
<use xlink:href="#path6_fill" transform="translate(4486 -119)" fill="#2F80ED"/>
</g>
<g id="Ellipse 2.3">
<use xlink:href="#path6_fill" transform="translate(4486 -113)" fill="#2F80ED"/>
</g>
<g id="Ellipse 2.4">
<use xlink:href="#path6_fill" transform="translate(4486 -107)" fill="#2F80ED"/>
</g>
<g id="Ellipse 2.5">
<use xlink:href="#path6_fill" transform="translate(4486 -101)" fill="#2F80ED"/>
</g>
<g id="Ellipse 2.6">
<use xlink:href="#path6_fill" transform="translate(4486 -95)" fill="#2F80ED"/>
</g>
<g id="Ellipse 2.7">
<use xlink:href="#path6_fill" transform="translate(4486 -89)" fill="#2F80ED"/>
</g>
<g id="Ellipse 2.8">
<use xlink:href="#path6_fill" transform="translate(4486 -83)" fill="#2F80ED"/>
</g>
</g>
</g>
</g>
</g>
<defs>
<path id="path0_fill" fill-rule="evenodd" d="M 8.99964 0C 4.02991 0.00122893 0.000617335 4.03082 0.000527842 9.00123L 1.49082e-09 114.553C -8.94917e-05 119.523 4.02901 123.553 8.99991 123.553L 51.0002 123.553C 55.971 123.554 60.0004 119.524 60.0005 114.554L 59.9997 9.00029C 59.9999 4.0298 55.9707 0.000826249 50.9999 0.000419335L 37.781 0.00124206C 37.3021 3.61692 34.2074 6.40619 30.461 6.40556C 26.7144 6.40515 23.62 3.61596 23.1411 0.000706823L 8.99964 0Z"/>
<path id="path1_stroke_2x" d="M 0.000527842 9.00123L -2.49947 9.00119L -2.49947 9.00122L 0.000527842 9.00123ZM 8.99964 0L 8.99976 -2.5L 8.99902 -2.5L 8.99964 0ZM 1.49082e-09 114.553L 2.5 114.553L 2.5 114.553L 1.49082e-09 114.553ZM 8.99991 123.553L 8.99974 126.053L 8.99989 126.053L 8.99991 123.553ZM 51.0002 123.553L 51.0004 121.053L 51.0002 121.053L 51.0002 123.553ZM 60.0005 114.554L 62.5005 114.554L 62.5005 114.554L 60.0005 114.554ZM 59.9997 9.00029L 57.4997 9.00019L 57.4997 9.00031L 59.9997 9.00029ZM 50.9999 0.000419335L 51.0001 -2.49958L 50.9998 -2.49958L 50.9999 0.000419335ZM 37.781 0.00124206L 37.7808 -2.49876L 35.5902 -2.49862L 35.3026 -0.326995L 37.781 0.00124206ZM 30.461 6.40556L 30.4615 3.90556L 30.4613 3.90556L 30.461 6.40556ZM 23.1411 0.000706823L 25.6195 -0.327558L 25.3319 -2.49918L 23.1413 -2.49929L 23.1411 0.000706823ZM 2.50053 9.00128C 2.50059 5.41142 5.41088 2.50089 9.00026 2.5L 8.99902 -2.5C 2.64895 -2.49843 -2.49936 2.65022 -2.49947 9.00119L 2.50053 9.00128ZM 2.5 114.553L 2.50053 9.00124L -2.49947 9.00122L -2.5 114.553L 2.5 114.553ZM 9.00008 121.053C 5.40961 121.053 2.49994 118.143 2.5 114.553L -2.5 114.553C -2.50011 120.904 2.64841 126.052 8.99974 126.053L 9.00008 121.053ZM 51.0002 121.053L 8.99994 121.053L 8.99989 126.053L 51.0002 126.053L 51.0002 121.053ZM 57.5005 114.554C 57.5004 118.143 54.5903 121.054 51.0004 121.053L 51 126.053C 57.3517 126.054 62.5004 120.905 62.5005 114.554L 57.5005 114.554ZM 57.4997 9.00031L 57.5005 114.554L 62.5005 114.554L 62.4997 9.00027L 57.4997 9.00031ZM 50.9997 2.50042C 54.5902 2.50071 57.4999 5.41069 57.4997 9.00019L 62.4997 9.00038C 62.5 2.64892 57.3513 -2.49906 51.0001 -2.49958L 50.9997 2.50042ZM 37.7811 2.50124L 51.0001 2.50042L 50.9998 -2.49958L 37.7808 -2.49876L 37.7811 2.50124ZM 35.3026 -0.326995C 34.9862 2.06196 32.9373 3.90598 30.4615 3.90556L 30.4606 8.90556C 35.4775 8.90641 39.618 5.17188 40.2593 0.329479L 35.3026 -0.326995ZM 30.4613 3.90556C 27.9844 3.90529 25.9359 2.06085 25.6195 -0.327558L 20.6628 0.328971C 21.3041 5.17107 25.4443 8.90501 30.4608 8.90556L 30.4613 3.90556ZM 8.99951 2.5L 23.141 2.50071L 23.1413 -2.49929L 8.99976 -2.5L 8.99951 2.5Z"/>
<path id="path2_fill" d="M 38 19C 38 29.4934 29.4934 38 19 38C 8.50659 38 0 29.4934 0 19C 0 8.50659 8.50659 0 19 0C 29.4934 0 38 8.50659 38 19Z"/>
<path id="path3_stroke_2x" d="M 35.5 19C 35.5 28.1127 28.1127 35.5 19 35.5L 19 40.5C 30.8741 40.5 40.5 30.8741 40.5 19L 35.5 19ZM 19 35.5C 9.8873 35.5 2.5 28.1127 2.5 19L -2.5 19C -2.5 30.8741 7.12588 40.5 19 40.5L 19 35.5ZM 2.5 19C 2.5 9.8873 9.8873 2.5 19 2.5L 19 -2.5C 7.12588 -2.5 -2.5 7.12588 -2.5 19L 2.5 19ZM 19 2.5C 28.1127 2.5 35.5 9.8873 35.5 19L 40.5 19C 40.5 7.12588 30.8741 -2.5 19 -2.5L 19 2.5Z"/>
<path id="path4_fill" d="M 23.9446 8.53005C 23.8795 8.22872 23.5926 8.04505 23.2796 8.04505L 15.3102 8.04505L 12.7019 0.484997C 12.5883 0.155966 12.3627 1.1722e-08 12.0104 1.1722e-08C 11.6584 1.1722e-08 11.4197 0.155966 11.3062 0.484997L 8.69755 8.04505L 0.728458 8.04505C 0.376184 8.04505 0.154419 8.20244 0.0370075 8.53005C -0.0542865 8.88366 0.023086 9.14698 0.271831 9.34235L 6.663 14.3607L 4.34128 22.0519C 4.23943 22.3895 4.34128 22.6676 4.60226 22.8641C 4.88912 23.0347 5.18967 23.0556 5.46288 22.8641L 12.0104 18.2782L 18.5448 22.8641C 18.6842 22.962 18.832 22.9952 18.9753 22.9952C 19.3796 22.9952 19.6926 22.6808 19.6926 22.2746C 19.6926 22.2092 19.6837 22.1161 19.6406 21.9733L 17.345 14.3607L 23.7359 9.34235C 23.993 9.14052 24.062 8.87051 23.9446 8.53005ZM 16.0668 13.5221C 15.847 13.6946 15.7392 14.0292 15.8191 14.295L 17.6711 20.4664L 12.4016 16.7976C 12.137 16.6134 11.8618 16.6195 11.6061 16.7976L 6.33688 20.4664L 8.18892 14.295C 8.26876 14.0292 8.16112 13.6946 7.941 13.5221L 2.81536 9.49945L 9.23237 9.49945C 9.55845 9.49945 9.78359 9.34349 9.89767 9.01473L 12.0104 2.92192L 14.1104 9.01473C 14.2236 9.34376 14.4495 9.49945 14.7884 9.49945L 21.1927 9.49945L 16.0668 13.5221Z"/>
<path id="path5_stroke_2x" d="M 23.9446 8.53005L 23.7491 8.57228L 23.7516 8.58396L 23.7555 8.59526L 23.9446 8.53005ZM 15.3102 8.04505L 15.1211 8.11028L 15.1676 8.24505L 15.3102 8.24505L 15.3102 8.04505ZM 12.7019 0.484997L 12.8909 0.419768L 12.8909 0.419742L 12.7019 0.484997ZM 11.3062 0.484997L 11.4952 0.550233L 11.4952 0.550231L 11.3062 0.484997ZM 8.69755 8.04505L 8.69755 8.24505L 8.84011 8.24505L 8.88661 8.11029L 8.69755 8.04505ZM 0.0370075 8.53005L -0.151267 8.46258L -0.154355 8.47119L -0.156643 8.48006L 0.0370075 8.53005ZM 0.271831 9.34235L 0.148298 9.49963L 0.148317 9.49965L 0.271831 9.34235ZM 6.663 14.3607L 6.85447 14.4185L 6.89394 14.2877L 6.78652 14.2034L 6.663 14.3607ZM 4.34128 22.0519L 4.14981 21.9941L 4.1498 21.9941L 4.34128 22.0519ZM 4.60226 22.8641L 4.48196 23.0239L 4.49068 23.0305L 4.50007 23.0361L 4.60226 22.8641ZM 5.46288 22.8641L 5.34815 22.7003L 5.34811 22.7004L 5.46288 22.8641ZM 12.0104 18.2782L 12.1253 18.1145L 12.0105 18.034L 11.8957 18.1144L 12.0104 18.2782ZM 18.5448 22.8641L 18.4299 23.0279L 18.43 23.0279L 18.5448 22.8641ZM 19.6406 21.9733L 19.4491 22.031L 19.4491 22.0311L 19.6406 21.9733ZM 17.345 14.3607L 17.2215 14.2034L 17.1141 14.2877L 17.1535 14.4184L 17.345 14.3607ZM 23.7359 9.34235L 23.6124 9.18504L 23.6124 9.18504L 23.7359 9.34235ZM 16.0668 13.5221L 16.1902 13.6795L 16.1902 13.6795L 16.0668 13.5221ZM 15.8191 14.295L 16.0107 14.2375L 16.0106 14.2375L 15.8191 14.295ZM 17.6711 20.4664L 17.5569 20.6305L 18.0276 20.9582L 17.8627 20.4089L 17.6711 20.4664ZM 12.4016 16.7976L 12.5159 16.6334L 12.5159 16.6334L 12.4016 16.7976ZM 11.6061 16.7976L 11.7204 16.9617L 11.7204 16.9617L 11.6061 16.7976ZM 6.33688 20.4664L 6.14532 20.4089L 5.98046 20.9583L 6.45117 20.6305L 6.33688 20.4664ZM 8.18892 14.295L 7.99737 14.2375L 7.99736 14.2375L 8.18892 14.295ZM 7.941 13.5221L 7.81752 13.6795L 7.81765 13.6795L 7.941 13.5221ZM 2.81536 9.49945L 2.81536 9.29945L 2.23657 9.29945L 2.69188 9.65679L 2.81536 9.49945ZM 9.89767 9.01473L 10.0866 9.0803L 10.0866 9.08026L 9.89767 9.01473ZM 12.0104 2.92192L 12.1995 2.85675L 12.011 2.3098L 11.8214 2.85639L 12.0104 2.92192ZM 14.1104 9.01473L 14.2995 8.94964L 14.2994 8.94956L 14.1104 9.01473ZM 21.1927 9.49945L 21.3161 9.65679L 21.7715 9.29945L 21.1927 9.29945L 21.1927 9.49945ZM 24.1401 8.48782C 24.0505 8.07304 23.663 7.84505 23.2796 7.84505L 23.2796 8.24505C 23.5222 8.24505 23.7085 8.3844 23.7491 8.57228L 24.1401 8.48782ZM 23.2796 7.84505L 15.3102 7.84505L 15.3102 8.24505L 23.2796 8.24505L 23.2796 7.84505ZM 15.4992 7.97983L 12.8909 0.419768L 12.5128 0.550226L 15.1211 8.11028L 15.4992 7.97983ZM 12.8909 0.419742C 12.8238 0.225314 12.7173 0.0649412 12.5602 -0.0448165C 12.4037 -0.154239 12.216 -0.2 12.0104 -0.2L 12.0104 0.2C 12.1571 0.2 12.2584 0.232223 12.3311 0.283041C 12.4033 0.333524 12.4663 0.415649 12.5128 0.550251L 12.8909 0.419742ZM 12.0104 -0.2C 11.805 -0.2 11.6153 -0.154319 11.4564 -0.0462925C 11.3118 0.0556272 11.1856 0.228092 11.1171 0.419762L 11.4952 0.550231C 11.5403 0.412872 11.5902 0.342838 11.6813 0.284516C 11.7581 0.232302 11.8638 0.2 12.0104 0.2L 12.0104 -0.2ZM 11.1171 0.41976L 8.50849 7.97982L 8.88661 8.11029L 11.4952 0.550233L 11.1171 0.41976ZM 8.69755 7.84505L 0.728458 7.84505L 0.728458 8.24505L 8.69755 8.24505L 8.69755 7.84505ZM 0.728458 7.84505C 0.522323 7.84505 0.335557 7.8914 0.179591 8.00112C 0.0236003 8.11084 -0.0824195 8.27047 -0.151267 8.46258L 0.225282 8.59753C 0.273846 8.46202 0.337414 8.37915 0.409728 8.32828C 0.482065 8.2774 0.582318 8.24505 0.728458 8.24505L 0.728458 7.84505ZM -0.156643 8.48006C -0.206749 8.67942 -0.210433 8.88701 -0.165168 9.05129C -0.114136 9.21704 0.00270433 9.38267 0.148298 9.49963L 0.395364 9.18506C 0.292213 9.10666 0.245995 9.04295 0.218978 8.93979C 0.186193 8.83517 0.18947 8.73429 0.230658 8.58005L -0.156643 8.48006ZM 0.148317 9.49965L 6.53949 14.518L 6.78652 14.2034L 0.395345 9.18504L 0.148317 9.49965ZM 6.47153 14.3029L 4.14981 21.9941L 4.53274 22.1097L 6.85447 14.4185L 6.47153 14.3029ZM 4.1498 21.9941C 4.02328 22.4136 4.1553 22.778 4.48196 23.0239L 4.72256 22.7044C 4.52725 22.5573 4.45559 22.3655 4.53276 22.1096L 4.1498 21.9941ZM 4.50007 23.0361C 4.83876 23.2374 5.22621 23.2742 5.57766 23.0279L 5.34811 22.7004C 5.15313 22.837 4.93948 22.8319 4.70444 22.6922L 4.50007 23.0361ZM 5.57762 23.028L 12.1251 18.4421L 11.8957 18.1144L 5.34815 22.7003L 5.57762 23.028ZM 11.8955 18.442L 18.4299 23.0279L 18.6597 22.7004L 12.1253 18.1145L 11.8955 18.442ZM 18.43 23.0279C 18.6033 23.1449 18.8099 23.194 18.9753 23.1952L 18.9753 22.7952C 18.8541 22.7964 18.7652 22.7791 18.6597 22.7004L 18.43 23.0279ZM 18.9753 23.1952C 19.4909 23.1952 19.8926 22.7904 19.8926 22.2746L 19.4926 22.2746C 19.4926 22.5712 19.2683 22.7952 18.9753 22.7952L 18.9753 23.1952ZM 19.8926 22.2746C 19.8924 22.1997 19.88 22.0775 19.8321 21.9155L 19.4491 22.0311C 19.4871 22.157 19.4926 22.2305 19.4926 22.2746L 19.8926 22.2746ZM 19.8321 21.9156L 17.5365 14.3029L 17.1535 14.4184L 19.4491 22.031L 19.8321 21.9156ZM 17.4685 14.518L 23.8594 9.49965L 23.6124 9.18504L 17.2215 14.2034L 17.4685 14.518ZM 23.8594 9.49965C 24.0101 9.37848 24.1279 9.20647 24.1744 9.03789C 24.2213 8.85501 24.2014 8.66138 24.1337 8.46485L 23.7555 8.59526C 23.8052 8.73917 23.8095 8.85079 23.787 8.93848C 23.764 9.04048 23.7188 9.10438 23.6124 9.18504L 23.8594 9.49965ZM 15.9433 13.3648C 15.6597 13.5873 15.5237 14.0068 15.6276 14.3526L 16.0106 14.2375C 15.9548 14.0516 16.0342 13.8019 16.1902 13.6795L 15.9433 13.3648ZM 15.6275 14.3525L 17.4796 20.5239L 17.8627 20.4089L 16.0107 14.2375L 15.6275 14.3525ZM 17.7854 20.3022L 12.5159 16.6334L 12.2873 16.9617L 17.5569 20.6305L 17.7854 20.3022ZM 12.5159 16.6334C 12.1811 16.4004 11.8147 16.4086 11.4918 16.6334L 11.7204 16.9617C 11.9089 16.8304 12.0929 16.8264 12.2874 16.9617L 12.5159 16.6334ZM 11.4918 16.6334L 6.2226 20.3023L 6.45117 20.6305L 11.7204 16.9617L 11.4918 16.6334ZM 6.52844 20.5239L 8.38048 14.3525L 7.99736 14.2375L 6.14532 20.4089L 6.52844 20.5239ZM 8.38047 14.3525C 8.48432 14.0068 8.3484 13.5873 8.06435 13.3647L 7.81765 13.6795C 7.97383 13.8019 8.05321 14.0516 7.99737 14.2375L 8.38047 14.3525ZM 8.06448 13.3648L 2.93883 9.34212L 2.69188 9.65679L 7.81752 13.6795L 8.06448 13.3648ZM 2.81536 9.69945L 9.23237 9.69945L 9.23237 9.29945L 2.81536 9.29945L 2.81536 9.69945ZM 9.23237 9.69945C 9.4229 9.69756 9.62016 9.64058 9.76133 9.54272C 9.91332 9.43336 10.0193 9.27421 10.0866 9.0803L 9.70872 8.94917C 9.66193 9.08401 9.59832 9.16722 9.52771 9.21803C 9.44627 9.28035 9.36792 9.30135 9.23237 9.29945L 9.23237 9.69945ZM 10.0866 9.08026L 12.1994 2.98744L 11.8214 2.85639L 9.7087 8.94921L 10.0866 9.08026ZM 11.8213 2.98709L 13.9213 9.0799L 14.2994 8.94956L 12.1995 2.85675L 11.8213 2.98709ZM 13.9213 9.07983C 13.9882 9.2743 14.0945 9.43414 14.2492 9.54368C 14.3921 9.64125 14.5922 9.69765 14.7884 9.69945L 14.7884 9.29945C 14.6458 9.30126 14.5635 9.27981 14.4804 9.21728C 14.409 9.16672 14.3458 9.08419 14.2995 8.94964L 13.9213 9.07983ZM 14.7884 9.69945L 21.1927 9.69945L 21.1927 9.29945L 14.7884 9.29945L 14.7884 9.69945ZM 21.0692 9.34212L 15.9433 13.3648L 16.1902 13.6795L 21.3161 9.65679L 21.0692 9.34212Z"/>
<path id="path6_fill" d="M 3 1.5C 3 2.32843 2.32843 3 1.5 3C 0.671573 3 0 2.32843 0 1.5C 0 0.671573 0.671573 0 1.5 0C 2.32843 0 3 0.671573 3 1.5Z"/>
<path id="path7_fill" fill-rule="evenodd" d="M 9 0C 4.02942 3.0436e-16 -3.04368e-16 4.0293 0 9L 0 114.553C 3.04368e-16 119.523 4.02942 123.553 9 123.553L 51 123.553C 55.9706 123.553 60 119.523 60 114.553L 60 9C 60 4.0293 55.9706 -3.0436e-16 51 0L 37.782 0C 37.3032 3.61523 34.2081 6.40625 30.4615 6.40625C 26.7148 6.40625 23.6199 3.61523 23.1411 0L 9 0Z"/>
<path id="path8_stroke_2x" d="M 37.782 0L 37.782 -2.5L 35.5912 -2.5L 35.3036 -0.328206L 37.782 0ZM 23.1411 0L 25.6195 -0.328206L 25.3319 -2.5L 23.1411 -2.5L 23.1411 0ZM 2.5 9C 2.5 5.41003 5.41011 2.5 9 2.5L 9 -2.5C 2.64873 -2.5 -2.5 2.64856 -2.5 9L 2.5 9ZM 2.5 114.553L 2.5 9L -2.5 9L -2.5 114.553L 2.5 114.553ZM 9 121.053C 5.41011 121.053 2.5 118.143 2.5 114.553L -2.5 114.553C -2.5 120.904 2.64873 126.053 9 126.053L 9 121.053ZM 51 121.053L 9 121.053L 9 126.053L 51 126.053L 51 121.053ZM 57.5 114.553C 57.5 118.143 54.5899 121.053 51 121.053L 51 126.053C 57.3513 126.053 62.5 120.904 62.5 114.553L 57.5 114.553ZM 57.5 9L 57.5 114.553L 62.5 114.553L 62.5 9L 57.5 9ZM 51 2.5C 54.5899 2.5 57.5 5.41003 57.5 9L 62.5 9C 62.5 2.64856 57.3513 -2.5 51 -2.5L 51 2.5ZM 37.782 2.5L 51 2.5L 51 -2.5L 37.782 -2.5L 37.782 2.5ZM 35.3036 -0.328206C 34.9873 2.06074 32.9375 3.90625 30.4615 3.90625L 30.4615 8.90625C 35.4788 8.90625 39.6192 5.16973 40.2603 0.328206L 35.3036 -0.328206ZM 30.4615 3.90625C 27.9855 3.90625 25.9358 2.06077 25.6195 -0.328206L 20.6628 0.328206C 21.3039 5.1697 25.4442 8.90625 30.4615 8.90625L 30.4615 3.90625ZM 9 2.5L 23.1411 2.5L 23.1411 -2.5L 9 -2.5L 9 2.5Z"/>
</defs>
</svg>
